<?xml version="1.0" encoding="UTF-8" standalone="no"?>
<!DOCTYPE svg PUBLIC "-//W3C//DTD SVG 1.1//EN"
 "http://www.w3.org/Graphics/SVG/1.1/DTD/svg11.dtd">
<!-- Generated by graphviz version 7.0.5 (20221223.1930)
 -->
<!-- Title: src/DrawingUtils.hpp Pages: 1 -->
<svg width="449pt" height="247pt"
 viewBox="0.00 0.00 449.00 247.00" xmlns="http://www.w3.org/2000/svg" xmlns:xlink="http://www.w3.org/1999/xlink">
<g id="graph0" class="graph" transform="scale(1 1) rotate(0) translate(4 243)">
<title>src/DrawingUtils.hpp</title>
<!-- Node1 -->
<g id="node1" class="node">
<title>Node1</title>
<g id="a_node1"><a xlink:title="drawing utils including geometry handling">
<polygon fill="#999999" stroke="#666666" points="167,-239 60,-239 60,-220 167,-220 167,-239"/>
<text text-anchor="middle" x="113.5" y="-227" font-family="Helvetica,sans-Serif" font-size="10.00">src/DrawingUtils.hpp</text>
</a>
</g>
</g>
<!-- Node2 -->
<g id="node2" class="node">
<title>Node2</title>
<g id="a_node2"><a xlink:href="_bounding_rect_8h_source.html" target="_top" xlink:title=" ">
<polygon fill="white" stroke="#666666" points="85,-129 0,-129 0,-110 85,-110 85,-129"/>
<text text-anchor="middle" x="42.5" y="-117" font-family="Helvetica,sans-Serif" font-size="10.00">BoundingRect.h</text>
</a>
</g>
</g>
<!-- Node1&#45;&gt;Node2 -->
<g id="edge1" class="edge">
<title>Node1&#45;&gt;Node2</title>
<path fill="none" stroke="#63b8ff" d="M103.52,-219.73C94.33,-211.27 80.75,-197.75 71.5,-184 62.17,-170.14 54.48,-152.8 49.37,-139.75"/>
<polygon fill="#63b8ff" stroke="#63b8ff" points="52.73,-138.74 45.96,-130.6 46.18,-141.19 52.73,-138.74"/>
</g>
<!-- Node4 -->
<g id="node4" class="node">
<title>Node4</title>
<g id="a_node4"><a xlink:href="_draw_context_8h_source.html" target="_top" xlink:title=" ">
<polygon fill="white" stroke="#666666" points="231.5,-129 151.5,-129 151.5,-110 231.5,-110 231.5,-129"/>
<text text-anchor="middle" x="191.5" y="-117" font-family="Helvetica,sans-Serif" font-size="10.00">DrawContext.h</text>
</a>
</g>
</g>
<!-- Node1&#45;&gt;Node4 -->
<g id="edge3" class="edge">
<title>Node1&#45;&gt;Node4</title>
<path fill="none" stroke="#63b8ff" d="M122.59,-219.8C131.33,-211.17 144.64,-197.35 154.5,-184 165.05,-169.71 175.07,-152.18 182.01,-139.17"/>
<polygon fill="#63b8ff" stroke="#63b8ff" points="185.05,-140.91 186.56,-130.42 178.84,-137.68 185.05,-140.91"/>
</g>
<!-- Node12 -->
<g id="node12" class="node">
<title>Node12</title>
<g id="a_node12"><a xlink:href="_drawable_8h_source.html" target="_top" xlink:title=" ">
<polygon fill="white" stroke="#666666" points="146,-184 81,-184 81,-165 146,-165 146,-184"/>
<text text-anchor="middle" x="113.5" y="-172" font-family="Helvetica,sans-Serif" font-size="10.00">Drawable.h</text>
</a>
</g>
</g>
<!-- Node1&#45;&gt;Node12 -->
<g id="edge12" class="edge">
<title>Node1&#45;&gt;Node12</title>
<path fill="none" stroke="#63b8ff" d="M113.5,-219.75C113.5,-213.27 113.5,-204.16 113.5,-195.9"/>
<polygon fill="#63b8ff" stroke="#63b8ff" points="117,-195.96 113.5,-185.96 110,-195.96 117,-195.96"/>
</g>
<!-- Node3 -->
<g id="node3" class="node">
<title>Node3</title>
<g id="a_node3"><a xlink:title=" ">
<polygon fill="#e0e0e0" stroke="#999999" points="61.5,-74 13.5,-74 13.5,-55 61.5,-55 61.5,-74"/>
<text text-anchor="middle" x="37.5" y="-62" font-family="Helvetica,sans-Serif" font-size="10.00">stdint.h</text>
</a>
</g>
</g>
<!-- Node2&#45;&gt;Node3 -->
<g id="edge2" class="edge">
<title>Node2&#45;&gt;Node3</title>
<path fill="none" stroke="#63b8ff" d="M41.67,-109.75C41.06,-103.27 40.2,-94.16 39.42,-85.9"/>
<polygon fill="#63b8ff" stroke="#63b8ff" points="42.91,-85.58 38.49,-75.95 35.94,-86.23 42.91,-85.58"/>
</g>
<!-- Node5 -->
<g id="node5" class="node">
<title>Node5</title>
<g id="a_node5"><a xlink:href="_color_palette_8h_source.html" target="_top" xlink:title=" ">
<polygon fill="white" stroke="#666666" points="387,-74 310,-74 310,-55 387,-55 387,-74"/>
<text text-anchor="middle" x="348.5" y="-62" font-family="Helvetica,sans-Serif" font-size="10.00">ColorPalette.h</text>
</a>
</g>
</g>
<!-- Node4&#45;&gt;Node5 -->
<g id="edge4" class="edge">
<title>Node4&#45;&gt;Node5</title>
<path fill="none" stroke="#63b8ff" d="M218.13,-109.51C243.7,-100.88 282.55,-87.76 311.19,-78.1"/>
<polygon fill="#63b8ff" stroke="#63b8ff" points="312.21,-81.45 320.56,-74.93 309.97,-74.81 312.21,-81.45"/>
</g>
<!-- Node7 -->
<g id="node7" class="node">
<title>Node7</title>
<g id="a_node7"><a xlink:title=" ">
<polygon fill="#e0e0e0" stroke="#999999" points="441,-19 400,-19 400,0 441,0 441,-19"/>
<text text-anchor="middle" x="420.5" y="-7" font-family="Helvetica,sans-Serif" font-size="10.00">string</text>
</a>
</g>
</g>
<!-- Node4&#45;&gt;Node7 -->
<g id="edge11" class="edge">
<title>Node4&#45;&gt;Node7</title>
<path fill="none" stroke="#63b8ff" d="M231.94,-114.31C284.44,-108.11 372.23,-94.93 396.5,-74 409.2,-63.05 415.2,-44.65 418.02,-30.47"/>
<polygon fill="#63b8ff" stroke="#63b8ff" points="421.43,-31.3 419.53,-20.88 414.52,-30.21 421.43,-31.3"/>
</g>
<!-- Node9 -->
<g id="node9" class="node">
<title>Node9</title>
<g id="a_node9"><a xlink:href="_expression_8h_source.html" target="_top" xlink:title=" ">
<polygon fill="white" stroke="#666666" points="227,-74 156,-74 156,-55 227,-55 227,-74"/>
<text text-anchor="middle" x="191.5" y="-62" font-family="Helvetica,sans-Serif" font-size="10.00">Expression.h</text>
</a>
</g>
</g>
<!-- Node4&#45;&gt;Node9 -->
<g id="edge8" class="edge">
<title>Node4&#45;&gt;Node9</title>
<path fill="none" stroke="#63b8ff" d="M191.5,-109.75C191.5,-103.27 191.5,-94.16 191.5,-85.9"/>
<polygon fill="#63b8ff" stroke="#63b8ff" points="195,-85.96 191.5,-75.96 188,-85.96 195,-85.96"/>
</g>
<!-- Node10 -->
<g id="node10" class="node">
<title>Node10</title>
<g id="a_node10"><a xlink:href="_gaze_8h_source.html" target="_top" xlink:title=" ">
<polygon fill="white" stroke="#666666" points="292,-74 245,-74 245,-55 292,-55 292,-74"/>
<text text-anchor="middle" x="268.5" y="-62" font-family="Helvetica,sans-Serif" font-size="10.00">Gaze.h</text>
</a>
</g>
</g>
<!-- Node4&#45;&gt;Node10 -->
<g id="edge9" class="edge">
<title>Node4&#45;&gt;Node10</title>
<path fill="none" stroke="#63b8ff" d="M204.56,-109.51C216.02,-101.62 232.93,-89.98 246.48,-80.65"/>
<polygon fill="#63b8ff" stroke="#63b8ff" points="248.13,-83.77 254.38,-75.22 244.16,-78 248.13,-83.77"/>
</g>
<!-- Node11 -->
<g id="node11" class="node">
<title>Node11</title>
<g id="a_node11"><a xlink:title=" ">
<polygon fill="#e0e0e0" stroke="#999999" points="137.5,-74 79.5,-74 79.5,-55 137.5,-55 137.5,-74"/>
<text text-anchor="middle" x="108.5" y="-62" font-family="Helvetica,sans-Serif" font-size="10.00">M5GFX.h</text>
</a>
</g>
</g>
<!-- Node4&#45;&gt;Node11 -->
<g id="edge10" class="edge">
<title>Node4&#45;&gt;Node11</title>
<path fill="none" stroke="#63b8ff" d="M177.42,-109.51C164.94,-101.54 146.48,-89.75 131.81,-80.38"/>
<polygon fill="#63b8ff" stroke="#63b8ff" points="133.96,-77.6 123.65,-75.17 130.19,-83.5 133.96,-77.6"/>
</g>
<!-- Node6 -->
<g id="node6" class="node">
<title>Node6</title>
<g id="a_node6"><a xlink:title=" ">
<polygon fill="#e0e0e0" stroke="#999999" points="381.5,-19 313.5,-19 313.5,0 381.5,0 381.5,-19"/>
<text text-anchor="middle" x="347.5" y="-7" font-family="Helvetica,sans-Serif" font-size="10.00">M5Unified.h</text>
</a>
</g>
</g>
<!-- Node5&#45;&gt;Node6 -->
<g id="edge5" class="edge">
<title>Node5&#45;&gt;Node6</title>
<path fill="none" stroke="#63b8ff" d="M348.33,-54.75C348.21,-48.27 348.04,-39.16 347.88,-30.9"/>
<polygon fill="#63b8ff" stroke="#63b8ff" points="351.39,-30.89 347.7,-20.96 344.39,-31.02 351.39,-30.89"/>
</g>
<!-- Node5&#45;&gt;Node7 -->
<g id="edge6" class="edge">
<title>Node5&#45;&gt;Node7</title>
<path fill="none" stroke="#63b8ff" d="M360.71,-54.51C371.33,-46.7 386.94,-35.21 399.54,-25.93"/>
<polygon fill="#63b8ff" stroke="#63b8ff" points="401.27,-29 407.25,-20.26 397.12,-23.36 401.27,-29"/>
</g>
<!-- Node8 -->
<g id="node8" class="node">
<title>Node8</title>
<g id="a_node8"><a xlink:title=" ">
<polygon fill="#e0e0e0" stroke="#999999" points="295,-19 260,-19 260,0 295,0 295,-19"/>
<text text-anchor="middle" x="277.5" y="-7" font-family="Helvetica,sans-Serif" font-size="10.00">map</text>
</a>
</g>
</g>
<!-- Node5&#45;&gt;Node8 -->
<g id="edge7" class="edge">
<title>Node5&#45;&gt;Node8</title>
<path fill="none" stroke="#63b8ff" d="M336.46,-54.51C326.09,-46.77 310.9,-35.43 298.53,-26.2"/>
<polygon fill="#63b8ff" stroke="#63b8ff" points="300.69,-23.44 290.58,-20.26 296.5,-29.05 300.69,-23.44"/>
</g>
<!-- Node12&#45;&gt;Node2 -->
<g id="edge14" class="edge">
<title>Node12&#45;&gt;Node2</title>
<path fill="none" stroke="#63b8ff" d="M101.46,-164.51C91.09,-156.77 75.9,-145.43 63.53,-136.2"/>
<polygon fill="#63b8ff" stroke="#63b8ff" points="65.69,-133.44 55.58,-130.26 61.5,-139.05 65.69,-133.44"/>
</g>
<!-- Node12&#45;&gt;Node4 -->
<g id="edge15" class="edge">
<title>Node12&#45;&gt;Node4</title>
<path fill="none" stroke="#63b8ff" d="M126.73,-164.51C138.34,-156.62 155.47,-144.98 169.2,-135.65"/>
<polygon fill="#63b8ff" stroke="#63b8ff" points="170.91,-138.72 177.21,-130.21 166.97,-132.93 170.91,-138.72"/>
</g>
<!-- Node12&#45;&gt;Node11 -->
<g id="edge13" class="edge">
<title>Node12&#45;&gt;Node11</title>
<path fill="none" stroke="#63b8ff" d="M113.09,-164.66C112.3,-147.57 110.54,-109.61 109.45,-85.92"/>
<polygon fill="#63b8ff" stroke="#63b8ff" points="112.94,-85.8 108.98,-75.97 105.95,-86.12 112.94,-85.8"/>
</g>
</g>
</svg>
