<?xml version="1.0" encoding="UTF-8" standalone="no"?>
<!DOCTYPE svg PUBLIC "-//W3C//DTD SVG 1.1//EN"
 "http://www.w3.org/Graphics/SVG/1.1/DTD/svg11.dtd">
<!-- Generated by graphviz version 7.0.5 (20221223.1930)
 -->
<!-- Title: src/DrawingUtils.hpp Pages: 1 -->
<svg width="192pt" height="137pt"
 viewBox="0.00 0.00 191.50 137.00" xmlns="http://www.w3.org/2000/svg" xmlns:xlink="http://www.w3.org/1999/xlink">
<g id="graph0" class="graph" transform="scale(1 1) rotate(0) translate(4 133)">
<title>src/DrawingUtils.hpp</title>
<!-- Node1 -->
<g id="node1" class="node">
<title>Node1</title>
<g id="a_node1"><a xlink:title="drawing utils including geometry handling">
<polygon fill="#999999" stroke="#666666" points="150,-129 43,-129 43,-110 150,-110 150,-129"/>
<text text-anchor="middle" x="96.5" y="-117" font-family="Helvetica,sans-Serif" font-size="10.00">src/DrawingUtils.hpp</text>
</a>
</g>
</g>
<!-- Node2 -->
<g id="node2" class="node">
<title>Node2</title>
<g id="a_node2"><a xlink:href="_eyebrows_8hpp.html" target="_top" xlink:title="Eyebrow components.">
<polygon fill="white" stroke="#666666" points="93,-74 0,-74 0,-55 93,-55 93,-74"/>
<text text-anchor="middle" x="46.5" y="-62" font-family="Helvetica,sans-Serif" font-size="10.00">src/Eyebrows.hpp</text>
</a>
</g>
</g>
<!-- Node1&#45;&gt;Node2 -->
<g id="edge1" class="edge">
<title>Node1&#45;&gt;Node2</title>
<path fill="none" stroke="#63b8ff" d="M80.46,-101.5C71.97,-92.5 61.9,-81.82 54.94,-74.44"/>
<polygon fill="#63b8ff" stroke="#63b8ff" points="77.8,-103.78 87.2,-108.65 82.89,-98.97 77.8,-103.78"/>
</g>
<!-- Node4 -->
<g id="node4" class="node">
<title>Node4</title>
<g id="a_node4"><a xlink:href="_eyes_8hpp.html" target="_top" xlink:title="Eye components.">
<polygon fill="white" stroke="#666666" points="183.5,-74 111.5,-74 111.5,-55 183.5,-55 183.5,-74"/>
<text text-anchor="middle" x="147.5" y="-62" font-family="Helvetica,sans-Serif" font-size="10.00">src/Eyes.hpp</text>
</a>
</g>
</g>
<!-- Node1&#45;&gt;Node4 -->
<g id="edge3" class="edge">
<title>Node1&#45;&gt;Node4</title>
<path fill="none" stroke="#63b8ff" d="M112.86,-101.5C121.52,-92.5 131.8,-81.82 138.9,-74.44"/>
<polygon fill="#63b8ff" stroke="#63b8ff" points="110.38,-99.02 105.97,-108.66 115.43,-103.88 110.38,-99.02"/>
</g>
<!-- Node3 -->
<g id="node3" class="node">
<title>Node3</title>
<g id="a_node3"><a xlink:href="_face_templates_8hpp_source.html" target="_top" xlink:title=" ">
<polygon fill="white" stroke="#666666" points="169.5,-19 23.5,-19 23.5,0 169.5,0 169.5,-19"/>
<text text-anchor="middle" x="96.5" y="-7" font-family="Helvetica,sans-Serif" font-size="10.00">src/faces/FaceTemplates.hpp</text>
</a>
</g>
</g>
<!-- Node2&#45;&gt;Node3 -->
<g id="edge2" class="edge">
<title>Node2&#45;&gt;Node3</title>
<path fill="none" stroke="#63b8ff" d="M62.54,-46.5C71.03,-37.5 81.1,-26.82 88.06,-19.44"/>
<polygon fill="#63b8ff" stroke="#63b8ff" points="60.11,-43.97 55.8,-53.65 65.2,-48.78 60.11,-43.97"/>
</g>
<!-- Node4&#45;&gt;Node3 -->
<g id="edge4" class="edge">
<title>Node4&#45;&gt;Node3</title>
<path fill="none" stroke="#63b8ff" d="M131.14,-46.5C122.48,-37.5 112.2,-26.82 105.1,-19.44"/>
<polygon fill="#63b8ff" stroke="#63b8ff" points="128.57,-48.88 138.03,-53.66 133.62,-44.02 128.57,-48.88"/>
</g>
</g>
</svg>
