<?xml version="1.0" encoding="UTF-8" standalone="no"?>
<!DOCTYPE svg PUBLIC "-//W3C//DTD SVG 1.1//EN"
 "http://www.w3.org/Graphics/SVG/1.1/DTD/svg11.dtd">
<!-- Generated by graphviz version 7.0.5 (20221223.1930)
 -->
<!-- Title: src/Eyes.hpp Pages: 1 -->
<svg width="453pt" height="302pt"
 viewBox="0.00 0.00 453.00 302.00" xmlns="http://www.w3.org/2000/svg" xmlns:xlink="http://www.w3.org/1999/xlink">
<g id="graph0" class="graph" transform="scale(1 1) rotate(0) translate(4 298)">
<title>src/Eyes.hpp</title>
<!-- Node1 -->
<g id="node1" class="node">
<title>Node1</title>
<g id="a_node1"><a xlink:title="Eye components.">
<polygon fill="#999999" stroke="#666666" points="131.5,-294 59.5,-294 59.5,-275 131.5,-275 131.5,-294"/>
<text text-anchor="middle" x="95.5" y="-282" font-family="Helvetica,sans-Serif" font-size="10.00">src/Eyes.hpp</text>
</a>
</g>
</g>
<!-- Node2 -->
<g id="node2" class="node">
<title>Node2</title>
<g id="a_node2"><a xlink:href="_bounding_rect_8h_source.html" target="_top" xlink:title=" ">
<polygon fill="white" stroke="#666666" points="85,-129 0,-129 0,-110 85,-110 85,-129"/>
<text text-anchor="middle" x="42.5" y="-117" font-family="Helvetica,sans-Serif" font-size="10.00">BoundingRect.h</text>
</a>
</g>
</g>
<!-- Node1&#45;&gt;Node2 -->
<g id="edge1" class="edge">
<title>Node1&#45;&gt;Node2</title>
<path fill="none" stroke="#63b8ff" d="M89.91,-274.59C84.58,-265.81 76.65,-251.88 71.5,-239 58.17,-205.66 49.78,-164.51 45.63,-140.51"/>
<polygon fill="#63b8ff" stroke="#63b8ff" points="49.12,-140.18 44.04,-130.88 42.21,-141.31 49.12,-140.18"/>
</g>
<!-- Node4 -->
<g id="node4" class="node">
<title>Node4</title>
<g id="a_node4"><a xlink:href="_draw_context_8h_source.html" target="_top" xlink:title=" ">
<polygon fill="white" stroke="#666666" points="244.5,-129 164.5,-129 164.5,-110 244.5,-110 244.5,-129"/>
<text text-anchor="middle" x="204.5" y="-117" font-family="Helvetica,sans-Serif" font-size="10.00">DrawContext.h</text>
</a>
</g>
</g>
<!-- Node1&#45;&gt;Node4 -->
<g id="edge3" class="edge">
<title>Node1&#45;&gt;Node4</title>
<path fill="none" stroke="#63b8ff" d="M131.92,-274.55C151.14,-267.92 173.39,-256.86 186.5,-239 207.79,-210.01 208.54,-166.14 206.77,-140.7"/>
<polygon fill="#63b8ff" stroke="#63b8ff" points="210.26,-140.4 205.86,-130.76 203.29,-141.04 210.26,-140.4"/>
</g>
<!-- Node12 -->
<g id="node12" class="node">
<title>Node12</title>
<g id="a_node12"><a xlink:href="_drawable_8h_source.html" target="_top" xlink:title=" ">
<polygon fill="white" stroke="#666666" points="146,-184 81,-184 81,-165 146,-165 146,-184"/>
<text text-anchor="middle" x="113.5" y="-172" font-family="Helvetica,sans-Serif" font-size="10.00">Drawable.h</text>
</a>
</g>
</g>
<!-- Node1&#45;&gt;Node12 -->
<g id="edge12" class="edge">
<title>Node1&#45;&gt;Node12</title>
<path fill="none" stroke="#63b8ff" d="M89.88,-274.75C82.67,-262.4 71.86,-239.2 78.5,-220 82.02,-209.83 88.93,-200.22 95.69,-192.55"/>
<polygon fill="#63b8ff" stroke="#63b8ff" points="98.19,-194.99 102.57,-185.35 93.13,-190.16 98.19,-194.99"/>
</g>
<!-- Node13 -->
<g id="node13" class="node">
<title>Node13</title>
<g id="a_node13"><a xlink:href="_drawing_utils_8hpp.html" target="_top" xlink:title="drawing utils including geometry handling">
<polygon fill="white" stroke="#666666" points="177.5,-239 87.5,-239 87.5,-220 177.5,-220 177.5,-239"/>
<text text-anchor="middle" x="132.5" y="-227" font-family="Helvetica,sans-Serif" font-size="10.00">DrawingUtils.hpp</text>
</a>
</g>
</g>
<!-- Node1&#45;&gt;Node13 -->
<g id="edge16" class="edge">
<title>Node1&#45;&gt;Node13</title>
<path fill="none" stroke="#63b8ff" d="M101.61,-274.75C106.51,-267.73 113.55,-257.64 119.67,-248.87"/>
<polygon fill="#63b8ff" stroke="#63b8ff" points="122.54,-250.89 125.39,-240.68 116.8,-246.88 122.54,-250.89"/>
</g>
<!-- Node3 -->
<g id="node3" class="node">
<title>Node3</title>
<g id="a_node3"><a xlink:title=" ">
<polygon fill="#e0e0e0" stroke="#999999" points="66.5,-74 18.5,-74 18.5,-55 66.5,-55 66.5,-74"/>
<text text-anchor="middle" x="42.5" y="-62" font-family="Helvetica,sans-Serif" font-size="10.00">stdint.h</text>
</a>
</g>
</g>
<!-- Node2&#45;&gt;Node3 -->
<g id="edge2" class="edge">
<title>Node2&#45;&gt;Node3</title>
<path fill="none" stroke="#63b8ff" d="M42.5,-109.75C42.5,-103.27 42.5,-94.16 42.5,-85.9"/>
<polygon fill="#63b8ff" stroke="#63b8ff" points="46,-85.96 42.5,-75.96 39,-85.96 46,-85.96"/>
</g>
<!-- Node5 -->
<g id="node5" class="node">
<title>Node5</title>
<g id="a_node5"><a xlink:href="_color_palette_8h_source.html" target="_top" xlink:title=" ">
<polygon fill="white" stroke="#666666" points="392,-74 315,-74 315,-55 392,-55 392,-74"/>
<text text-anchor="middle" x="353.5" y="-62" font-family="Helvetica,sans-Serif" font-size="10.00">ColorPalette.h</text>
</a>
</g>
</g>
<!-- Node4&#45;&gt;Node5 -->
<g id="edge4" class="edge">
<title>Node4&#45;&gt;Node5</title>
<path fill="none" stroke="#63b8ff" d="M229.78,-109.51C254,-100.89 290.8,-87.8 317.97,-78.14"/>
<polygon fill="#63b8ff" stroke="#63b8ff" points="318.92,-81.51 327.17,-74.87 316.58,-74.92 318.92,-81.51"/>
</g>
<!-- Node7 -->
<g id="node7" class="node">
<title>Node7</title>
<g id="a_node7"><a xlink:title=" ">
<polygon fill="#e0e0e0" stroke="#999999" points="445,-19 404,-19 404,0 445,0 445,-19"/>
<text text-anchor="middle" x="424.5" y="-7" font-family="Helvetica,sans-Serif" font-size="10.00">string</text>
</a>
</g>
</g>
<!-- Node4&#45;&gt;Node7 -->
<g id="edge11" class="edge">
<title>Node4&#45;&gt;Node7</title>
<path fill="none" stroke="#63b8ff" d="M244.71,-113.99C295.36,-107.56 378.56,-94.23 401.5,-74 414.01,-62.96 419.72,-44.57 422.33,-30.42"/>
<polygon fill="#63b8ff" stroke="#63b8ff" points="425.74,-31.25 423.69,-20.86 418.81,-30.26 425.74,-31.25"/>
</g>
<!-- Node9 -->
<g id="node9" class="node">
<title>Node9</title>
<g id="a_node9"><a xlink:href="_expression_8h_source.html" target="_top" xlink:title=" ">
<polygon fill="white" stroke="#666666" points="232,-74 161,-74 161,-55 232,-55 232,-74"/>
<text text-anchor="middle" x="196.5" y="-62" font-family="Helvetica,sans-Serif" font-size="10.00">Expression.h</text>
</a>
</g>
</g>
<!-- Node4&#45;&gt;Node9 -->
<g id="edge8" class="edge">
<title>Node4&#45;&gt;Node9</title>
<path fill="none" stroke="#63b8ff" d="M203.18,-109.75C202.19,-103.19 200.79,-93.95 199.53,-85.6"/>
<polygon fill="#63b8ff" stroke="#63b8ff" points="203.03,-85.3 198.08,-75.94 196.11,-86.35 203.03,-85.3"/>
</g>
<!-- Node10 -->
<g id="node10" class="node">
<title>Node10</title>
<g id="a_node10"><a xlink:href="_gaze_8h_source.html" target="_top" xlink:title=" ">
<polygon fill="white" stroke="#666666" points="297,-74 250,-74 250,-55 297,-55 297,-74"/>
<text text-anchor="middle" x="273.5" y="-62" font-family="Helvetica,sans-Serif" font-size="10.00">Gaze.h</text>
</a>
</g>
</g>
<!-- Node4&#45;&gt;Node10 -->
<g id="edge9" class="edge">
<title>Node4&#45;&gt;Node10</title>
<path fill="none" stroke="#63b8ff" d="M216.2,-109.51C226.28,-101.77 241.04,-90.43 253.06,-81.2"/>
<polygon fill="#63b8ff" stroke="#63b8ff" points="254.97,-84.15 260.77,-75.28 250.71,-78.6 254.97,-84.15"/>
</g>
<!-- Node11 -->
<g id="node11" class="node">
<title>Node11</title>
<g id="a_node11"><a xlink:title=" ">
<polygon fill="#e0e0e0" stroke="#999999" points="142.5,-74 84.5,-74 84.5,-55 142.5,-55 142.5,-74"/>
<text text-anchor="middle" x="113.5" y="-62" font-family="Helvetica,sans-Serif" font-size="10.00">M5GFX.h</text>
</a>
</g>
</g>
<!-- Node4&#45;&gt;Node11 -->
<g id="edge10" class="edge">
<title>Node4&#45;&gt;Node11</title>
<path fill="none" stroke="#63b8ff" d="M189.06,-109.51C175.25,-101.47 154.75,-89.53 138.59,-80.11"/>
<polygon fill="#63b8ff" stroke="#63b8ff" points="140.42,-77.13 130.02,-75.12 136.9,-83.18 140.42,-77.13"/>
</g>
<!-- Node6 -->
<g id="node6" class="node">
<title>Node6</title>
<g id="a_node6"><a xlink:title=" ">
<polygon fill="#e0e0e0" stroke="#999999" points="385.5,-19 317.5,-19 317.5,0 385.5,0 385.5,-19"/>
<text text-anchor="middle" x="351.5" y="-7" font-family="Helvetica,sans-Serif" font-size="10.00">M5Unified.h</text>
</a>
</g>
</g>
<!-- Node5&#45;&gt;Node6 -->
<g id="edge5" class="edge">
<title>Node5&#45;&gt;Node6</title>
<path fill="none" stroke="#63b8ff" d="M353.17,-54.75C352.93,-48.27 352.58,-39.16 352.27,-30.9"/>
<polygon fill="#63b8ff" stroke="#63b8ff" points="355.77,-30.82 351.89,-20.95 348.77,-31.08 355.77,-30.82"/>
</g>
<!-- Node5&#45;&gt;Node7 -->
<g id="edge6" class="edge">
<title>Node5&#45;&gt;Node7</title>
<path fill="none" stroke="#63b8ff" d="M365.54,-54.51C375.91,-46.77 391.1,-35.43 403.47,-26.2"/>
<polygon fill="#63b8ff" stroke="#63b8ff" points="405.5,-29.05 411.42,-20.26 401.31,-23.44 405.5,-29.05"/>
</g>
<!-- Node8 -->
<g id="node8" class="node">
<title>Node8</title>
<g id="a_node8"><a xlink:title=" ">
<polygon fill="#e0e0e0" stroke="#999999" points="299,-19 264,-19 264,0 299,0 299,-19"/>
<text text-anchor="middle" x="281.5" y="-7" font-family="Helvetica,sans-Serif" font-size="10.00">map</text>
</a>
</g>
</g>
<!-- Node5&#45;&gt;Node8 -->
<g id="edge7" class="edge">
<title>Node5&#45;&gt;Node8</title>
<path fill="none" stroke="#63b8ff" d="M341.29,-54.51C330.67,-46.7 315.06,-35.21 302.46,-25.93"/>
<polygon fill="#63b8ff" stroke="#63b8ff" points="304.88,-23.36 294.75,-20.26 300.73,-29 304.88,-23.36"/>
</g>
<!-- Node12&#45;&gt;Node2 -->
<g id="edge14" class="edge">
<title>Node12&#45;&gt;Node2</title>
<path fill="none" stroke="#63b8ff" d="M101.46,-164.51C91.09,-156.77 75.9,-145.43 63.53,-136.2"/>
<polygon fill="#63b8ff" stroke="#63b8ff" points="65.69,-133.44 55.58,-130.26 61.5,-139.05 65.69,-133.44"/>
</g>
<!-- Node12&#45;&gt;Node4 -->
<g id="edge15" class="edge">
<title>Node12&#45;&gt;Node4</title>
<path fill="none" stroke="#63b8ff" d="M128.94,-164.51C142.75,-156.47 163.25,-144.53 179.41,-135.11"/>
<polygon fill="#63b8ff" stroke="#63b8ff" points="181.1,-138.18 187.98,-130.12 177.58,-132.13 181.1,-138.18"/>
</g>
<!-- Node12&#45;&gt;Node11 -->
<g id="edge13" class="edge">
<title>Node12&#45;&gt;Node11</title>
<path fill="none" stroke="#63b8ff" d="M113.5,-164.66C113.5,-147.57 113.5,-109.61 113.5,-85.92"/>
<polygon fill="#63b8ff" stroke="#63b8ff" points="117,-85.97 113.5,-75.97 110,-85.97 117,-85.97"/>
</g>
<!-- Node13&#45;&gt;Node2 -->
<g id="edge17" class="edge">
<title>Node13&#45;&gt;Node2</title>
<path fill="none" stroke="#63b8ff" d="M116.24,-219.51C103.07,-211.56 84.76,-198.94 72.5,-184 61.84,-171.01 53.97,-153.6 48.96,-140.3"/>
<polygon fill="#63b8ff" stroke="#63b8ff" points="52.29,-139.19 45.68,-130.91 45.68,-141.5 52.29,-139.19"/>
</g>
<!-- Node13&#45;&gt;Node4 -->
<g id="edge18" class="edge">
<title>Node13&#45;&gt;Node4</title>
<path fill="none" stroke="#63b8ff" d="M138.39,-219.66C150.1,-202.1 176.51,-162.48 192.18,-138.98"/>
<polygon fill="#63b8ff" stroke="#63b8ff" points="195.05,-140.98 197.69,-130.72 189.23,-137.1 195.05,-140.98"/>
</g>
<!-- Node13&#45;&gt;Node12 -->
<g id="edge19" class="edge">
<title>Node13&#45;&gt;Node12</title>
<path fill="none" stroke="#63b8ff" d="M129.36,-219.75C126.96,-213.04 123.54,-203.52 120.5,-195.02"/>
<polygon fill="#63b8ff" stroke="#63b8ff" points="123.89,-194.1 117.22,-185.87 117.3,-196.46 123.89,-194.1"/>
</g>
</g>
</svg>
