<?xml version="1.0" encoding="UTF-8" standalone="no"?>
<!DOCTYPE svg PUBLIC "-//W3C//DTD SVG 1.1//EN"
 "http://www.w3.org/Graphics/SVG/1.1/DTD/svg11.dtd">
<!-- Generated by graphviz version 7.0.5 (20221223.1930)
 -->
<!-- Title: src/Mouths.hpp Pages: 1 -->
<svg width="772pt" height="357pt"
 viewBox="0.00 0.00 771.50 357.00" xmlns="http://www.w3.org/2000/svg" xmlns:xlink="http://www.w3.org/1999/xlink">
<g id="graph0" class="graph" transform="scale(1 1) rotate(0) translate(4 353)">
<title>src/Mouths.hpp</title>
<!-- Node1 -->
<g id="node1" class="node">
<title>Node1</title>
<g id="a_node1"><a xlink:title="Mouth components.">
<polygon fill="#999999" stroke="#666666" points="378,-349 295,-349 295,-330 378,-330 378,-349"/>
<text text-anchor="middle" x="336.5" y="-337" font-family="Helvetica,sans-Serif" font-size="10.00">src/Mouths.hpp</text>
</a>
</g>
</g>
<!-- Node2 -->
<g id="node2" class="node">
<title>Node2</title>
<g id="a_node2"><a xlink:href="_bounding_rect_8h_source.html" target="_top" xlink:title=" ">
<polygon fill="white" stroke="#666666" points="85,-129 0,-129 0,-110 85,-110 85,-129"/>
<text text-anchor="middle" x="42.5" y="-117" font-family="Helvetica,sans-Serif" font-size="10.00">BoundingRect.h</text>
</a>
</g>
</g>
<!-- Node1&#45;&gt;Node2 -->
<g id="edge1" class="edge">
<title>Node1&#45;&gt;Node2</title>
<path fill="none" stroke="#63b8ff" d="M294.54,-329.55C242.5,-316.75 153.23,-289.04 92.5,-239 69.95,-220.42 67.83,-210.93 56.5,-184 50.65,-170.11 47.1,-153.44 45.03,-140.66"/>
<polygon fill="#63b8ff" stroke="#63b8ff" points="48.52,-140.34 43.65,-130.93 41.59,-141.33 48.52,-140.34"/>
</g>
<!-- Node4 -->
<g id="node4" class="node">
<title>Node4</title>
<g id="a_node4"><a xlink:href="_draw_context_8h_source.html" target="_top" xlink:title=" ">
<polygon fill="white" stroke="#666666" points="594.5,-129 514.5,-129 514.5,-110 594.5,-110 594.5,-129"/>
<text text-anchor="middle" x="554.5" y="-117" font-family="Helvetica,sans-Serif" font-size="10.00">DrawContext.h</text>
</a>
</g>
</g>
<!-- Node1&#45;&gt;Node4 -->
<g id="edge3" class="edge">
<title>Node1&#45;&gt;Node4</title>
<path fill="none" stroke="#63b8ff" d="M378.4,-338.7C445.46,-336.46 575.36,-321.1 634.5,-239 660.8,-202.5 609.76,-158.28 577.71,-135.57"/>
<polygon fill="#63b8ff" stroke="#63b8ff" points="579.95,-132.87 569.72,-130.1 575.99,-138.64 579.95,-132.87"/>
</g>
<!-- Node12 -->
<g id="node12" class="node">
<title>Node12</title>
<g id="a_node12"><a xlink:href="_drawable_8h_source.html" target="_top" xlink:title=" ">
<polygon fill="white" stroke="#666666" points="397,-184 332,-184 332,-165 397,-165 397,-184"/>
<text text-anchor="middle" x="364.5" y="-172" font-family="Helvetica,sans-Serif" font-size="10.00">Drawable.h</text>
</a>
</g>
</g>
<!-- Node1&#45;&gt;Node12 -->
<g id="edge12" class="edge">
<title>Node1&#45;&gt;Node12</title>
<path fill="none" stroke="#63b8ff" d="M333.71,-329.56C327.87,-309.37 316.02,-258.95 329.5,-220 333.02,-209.83 339.93,-200.22 346.69,-192.55"/>
<polygon fill="#63b8ff" stroke="#63b8ff" points="349.19,-194.99 353.57,-185.35 344.13,-190.16 349.19,-194.99"/>
</g>
<!-- Node13 -->
<g id="node13" class="node">
<title>Node13</title>
<g id="a_node13"><a xlink:href="_face_8h_source.html" target="_top" xlink:title=" ">
<polygon fill="white" stroke="#666666" points="385.5,-294 339.5,-294 339.5,-275 385.5,-275 385.5,-294"/>
<text text-anchor="middle" x="362.5" y="-282" font-family="Helvetica,sans-Serif" font-size="10.00">Face.h</text>
</a>
</g>
</g>
<!-- Node1&#45;&gt;Node13 -->
<g id="edge16" class="edge">
<title>Node1&#45;&gt;Node13</title>
<path fill="none" stroke="#63b8ff" d="M340.79,-329.75C344.12,-322.96 348.86,-313.3 353.06,-304.73"/>
<polygon fill="#63b8ff" stroke="#63b8ff" points="356.18,-306.32 357.45,-295.8 349.9,-303.24 356.18,-306.32"/>
</g>
<!-- Node3 -->
<g id="node3" class="node">
<title>Node3</title>
<g id="a_node3"><a xlink:title=" ">
<polygon fill="#e0e0e0" stroke="#999999" points="66.5,-74 18.5,-74 18.5,-55 66.5,-55 66.5,-74"/>
<text text-anchor="middle" x="42.5" y="-62" font-family="Helvetica,sans-Serif" font-size="10.00">stdint.h</text>
</a>
</g>
</g>
<!-- Node2&#45;&gt;Node3 -->
<g id="edge2" class="edge">
<title>Node2&#45;&gt;Node3</title>
<path fill="none" stroke="#63b8ff" d="M42.5,-109.75C42.5,-103.27 42.5,-94.16 42.5,-85.9"/>
<polygon fill="#63b8ff" stroke="#63b8ff" points="46,-85.96 42.5,-75.96 39,-85.96 46,-85.96"/>
</g>
<!-- Node5 -->
<g id="node5" class="node">
<title>Node5</title>
<g id="a_node5"><a xlink:href="_color_palette_8h_source.html" target="_top" xlink:title=" ">
<polygon fill="white" stroke="#666666" points="536,-74 459,-74 459,-55 536,-55 536,-74"/>
<text text-anchor="middle" x="497.5" y="-62" font-family="Helvetica,sans-Serif" font-size="10.00">ColorPalette.h</text>
</a>
</g>
</g>
<!-- Node4&#45;&gt;Node5 -->
<g id="edge4" class="edge">
<title>Node4&#45;&gt;Node5</title>
<path fill="none" stroke="#63b8ff" d="M544.83,-109.51C536.76,-102 525.03,-91.1 515.28,-82.03"/>
<polygon fill="#63b8ff" stroke="#63b8ff" points="517.84,-79.63 508.13,-75.39 513.07,-84.76 517.84,-79.63"/>
</g>
<!-- Node7 -->
<g id="node7" class="node">
<title>Node7</title>
<g id="a_node7"><a xlink:title=" ">
<polygon fill="#e0e0e0" stroke="#999999" points="674,-19 633,-19 633,0 674,0 674,-19"/>
<text text-anchor="middle" x="653.5" y="-7" font-family="Helvetica,sans-Serif" font-size="10.00">string</text>
</a>
</g>
</g>
<!-- Node4&#45;&gt;Node7 -->
<g id="edge11" class="edge">
<title>Node4&#45;&gt;Node7</title>
<path fill="none" stroke="#63b8ff" d="M581.45,-109.59C598.91,-102.52 620.86,-90.97 634.5,-74 644.44,-61.63 649.19,-44.16 651.45,-30.67"/>
<polygon fill="#63b8ff" stroke="#63b8ff" points="654.92,-31.13 652.75,-20.76 647.98,-30.22 654.92,-31.13"/>
</g>
<!-- Node9 -->
<g id="node9" class="node">
<title>Node9</title>
<g id="a_node9"><a xlink:href="_expression_8h_source.html" target="_top" xlink:title=" ">
<polygon fill="white" stroke="#666666" points="625,-74 554,-74 554,-55 625,-55 625,-74"/>
<text text-anchor="middle" x="589.5" y="-62" font-family="Helvetica,sans-Serif" font-size="10.00">Expression.h</text>
</a>
</g>
</g>
<!-- Node4&#45;&gt;Node9 -->
<g id="edge8" class="edge">
<title>Node4&#45;&gt;Node9</title>
<path fill="none" stroke="#63b8ff" d="M560.28,-109.75C564.91,-102.73 571.57,-92.64 577.37,-83.87"/>
<polygon fill="#63b8ff" stroke="#63b8ff" points="580.17,-85.98 582.76,-75.71 574.33,-82.12 580.17,-85.98"/>
</g>
<!-- Node10 -->
<g id="node10" class="node">
<title>Node10</title>
<g id="a_node10"><a xlink:href="_gaze_8h_source.html" target="_top" xlink:title=" ">
<polygon fill="white" stroke="#666666" points="441,-74 394,-74 394,-55 441,-55 441,-74"/>
<text text-anchor="middle" x="417.5" y="-62" font-family="Helvetica,sans-Serif" font-size="10.00">Gaze.h</text>
</a>
</g>
</g>
<!-- Node4&#45;&gt;Node10 -->
<g id="edge9" class="edge">
<title>Node4&#45;&gt;Node10</title>
<path fill="none" stroke="#63b8ff" d="M531.26,-109.51C509.18,-100.97 475.75,-88.03 450.83,-78.4"/>
<polygon fill="#63b8ff" stroke="#63b8ff" points="452.4,-75.25 441.81,-74.9 449.87,-81.78 452.4,-75.25"/>
</g>
<!-- Node11 -->
<g id="node11" class="node">
<title>Node11</title>
<g id="a_node11"><a xlink:title=" ">
<polygon fill="#e0e0e0" stroke="#999999" points="375.5,-74 317.5,-74 317.5,-55 375.5,-55 375.5,-74"/>
<text text-anchor="middle" x="346.5" y="-62" font-family="Helvetica,sans-Serif" font-size="10.00">M5GFX.h</text>
</a>
</g>
</g>
<!-- Node4&#45;&gt;Node11 -->
<g id="edge10" class="edge">
<title>Node4&#45;&gt;Node11</title>
<path fill="none" stroke="#63b8ff" d="M519.22,-109.51C482.5,-100.16 425.12,-85.53 386.68,-75.74"/>
<polygon fill="#63b8ff" stroke="#63b8ff" points="387.92,-72.44 377.36,-73.36 386.19,-79.22 387.92,-72.44"/>
</g>
<!-- Node6 -->
<g id="node6" class="node">
<title>Node6</title>
<g id="a_node6"><a xlink:title=" ">
<polygon fill="#e0e0e0" stroke="#999999" points="763.5,-19 695.5,-19 695.5,0 763.5,0 763.5,-19"/>
<text text-anchor="middle" x="729.5" y="-7" font-family="Helvetica,sans-Serif" font-size="10.00">M5Unified.h</text>
</a>
</g>
</g>
<!-- Node5&#45;&gt;Node6 -->
<g id="edge5" class="edge">
<title>Node5&#45;&gt;Node6</title>
<path fill="none" stroke="#63b8ff" d="M536.33,-54.63C577.07,-45.32 641.03,-30.71 684.08,-20.88"/>
<polygon fill="#63b8ff" stroke="#63b8ff" points="684.64,-24.34 693.61,-18.7 683.08,-17.51 684.64,-24.34"/>
</g>
<!-- Node5&#45;&gt;Node7 -->
<g id="edge6" class="edge">
<title>Node5&#45;&gt;Node7</title>
<path fill="none" stroke="#63b8ff" d="M523.96,-54.51C551.13,-45.28 593.39,-30.92 622.2,-21.13"/>
<polygon fill="#63b8ff" stroke="#63b8ff" points="623.12,-24.52 631.46,-17.99 620.87,-17.89 623.12,-24.52"/>
</g>
<!-- Node8 -->
<g id="node8" class="node">
<title>Node8</title>
<g id="a_node8"><a xlink:title=" ">
<polygon fill="#e0e0e0" stroke="#999999" points="515,-19 480,-19 480,0 515,0 515,-19"/>
<text text-anchor="middle" x="497.5" y="-7" font-family="Helvetica,sans-Serif" font-size="10.00">map</text>
</a>
</g>
</g>
<!-- Node5&#45;&gt;Node8 -->
<g id="edge7" class="edge">
<title>Node5&#45;&gt;Node8</title>
<path fill="none" stroke="#63b8ff" d="M497.5,-54.75C497.5,-48.27 497.5,-39.16 497.5,-30.9"/>
<polygon fill="#63b8ff" stroke="#63b8ff" points="501,-30.96 497.5,-20.96 494,-30.96 501,-30.96"/>
</g>
<!-- Node12&#45;&gt;Node2 -->
<g id="edge14" class="edge">
<title>Node12&#45;&gt;Node2</title>
<path fill="none" stroke="#63b8ff" d="M331.55,-168.08C276.1,-158.95 163.6,-140.43 96.47,-129.38"/>
<polygon fill="#63b8ff" stroke="#63b8ff" points="97.23,-125.96 86.79,-127.79 96.09,-132.87 97.23,-125.96"/>
</g>
<!-- Node12&#45;&gt;Node4 -->
<g id="edge15" class="edge">
<title>Node12&#45;&gt;Node4</title>
<path fill="none" stroke="#63b8ff" d="M396.73,-164.51C428.35,-155.69 476.77,-142.18 511.63,-132.46"/>
<polygon fill="#63b8ff" stroke="#63b8ff" points="512.28,-135.91 520.97,-129.85 510.4,-129.17 512.28,-135.91"/>
</g>
<!-- Node12&#45;&gt;Node11 -->
<g id="edge13" class="edge">
<title>Node12&#45;&gt;Node11</title>
<path fill="none" stroke="#63b8ff" d="M363.03,-164.66C360.17,-147.5 353.79,-109.26 349.85,-85.6"/>
<polygon fill="#63b8ff" stroke="#63b8ff" points="353.34,-85.24 348.24,-75.95 346.43,-86.39 353.34,-85.24"/>
</g>
<!-- Node13&#45;&gt;Node2 -->
<g id="edge22" class="edge">
<title>Node13&#45;&gt;Node2</title>
<path fill="none" stroke="#63b8ff" d="M339.2,-281.57C285.21,-276.73 153.34,-262.75 116.5,-239 80.08,-215.52 58.46,-167.11 48.71,-139.99"/>
<polygon fill="#63b8ff" stroke="#63b8ff" points="52.06,-138.98 45.54,-130.63 45.43,-141.23 52.06,-138.98"/>
</g>
<!-- Node14 -->
<g id="node14" class="node">
<title>Node14</title>
<g id="a_node14"><a xlink:href="_balloon_8h_source.html" target="_top" xlink:title=" ">
<polygon fill="white" stroke="#666666" points="625.5,-239 569.5,-239 569.5,-220 625.5,-220 625.5,-239"/>
<text text-anchor="middle" x="597.5" y="-227" font-family="Helvetica,sans-Serif" font-size="10.00">Balloon.h</text>
</a>
</g>
</g>
<!-- Node13&#45;&gt;Node14 -->
<g id="edge17" class="edge">
<title>Node13&#45;&gt;Node14</title>
<path fill="none" stroke="#63b8ff" d="M385.89,-278.22C426.09,-269.16 508.69,-250.53 557.96,-239.42"/>
<polygon fill="#63b8ff" stroke="#63b8ff" points="558.67,-242.85 567.66,-237.23 557.13,-236.02 558.67,-242.85"/>
</g>
<!-- Node15 -->
<g id="node15" class="node">
<title>Node15</title>
<g id="a_node15"><a xlink:href="_eye_8h_source.html" target="_top" xlink:title=" ">
<polygon fill="white" stroke="#666666" points="446.5,-239 406.5,-239 406.5,-220 446.5,-220 446.5,-239"/>
<text text-anchor="middle" x="426.5" y="-227" font-family="Helvetica,sans-Serif" font-size="10.00">Eye.h</text>
</a>
</g>
</g>
<!-- Node13&#45;&gt;Node15 -->
<g id="edge23" class="edge">
<title>Node13&#45;&gt;Node15</title>
<path fill="none" stroke="#63b8ff" d="M373.36,-274.51C382.61,-266.85 396.12,-255.66 407.21,-246.47"/>
<polygon fill="#63b8ff" stroke="#63b8ff" points="409.17,-249.4 414.64,-240.32 404.7,-244.01 409.17,-249.4"/>
</g>
<!-- Node16 -->
<g id="node16" class="node">
<title>Node16</title>
<g id="a_node16"><a xlink:href="_eyeblow_8h_source.html" target="_top" xlink:title=" ">
<polygon fill="white" stroke="#666666" points="282.5,-239 222.5,-239 222.5,-220 282.5,-220 282.5,-239"/>
<text text-anchor="middle" x="252.5" y="-227" font-family="Helvetica,sans-Serif" font-size="10.00">Eyeblow.h</text>
</a>
</g>
</g>
<!-- Node13&#45;&gt;Node16 -->
<g id="edge27" class="edge">
<title>Node13&#45;&gt;Node16</title>
<path fill="none" stroke="#63b8ff" d="M343.84,-274.51C326.67,-266.24 300.95,-253.84 281.17,-244.31"/>
<polygon fill="#63b8ff" stroke="#63b8ff" points="282.78,-241.2 272.25,-240.01 279.74,-247.51 282.78,-241.2"/>
</g>
<!-- Node17 -->
<g id="node17" class="node">
<title>Node17</title>
<g id="a_node17"><a xlink:href="_mouth_8h_source.html" target="_top" xlink:title=" ">
<polygon fill="white" stroke="#666666" points="177,-239 126,-239 126,-220 177,-220 177,-239"/>
<text text-anchor="middle" x="151.5" y="-227" font-family="Helvetica,sans-Serif" font-size="10.00">Mouth.h</text>
</a>
</g>
</g>
<!-- Node13&#45;&gt;Node17 -->
<g id="edge32" class="edge">
<title>Node13&#45;&gt;Node17</title>
<path fill="none" stroke="#63b8ff" d="M339.11,-277.63C302.57,-268.45 231.63,-250.63 188.23,-239.72"/>
<polygon fill="#63b8ff" stroke="#63b8ff" points="189.31,-236.39 178.76,-237.35 187.61,-243.18 189.31,-236.39"/>
</g>
<!-- Node18 -->
<g id="node18" class="node">
<title>Node18</title>
<g id="a_node18"><a xlink:href="_effect_8h_source.html" target="_top" xlink:title=" ">
<polygon fill="white" stroke="#666666" points="388,-239 339,-239 339,-220 388,-220 388,-239"/>
<text text-anchor="middle" x="363.5" y="-227" font-family="Helvetica,sans-Serif" font-size="10.00">Effect.h</text>
</a>
</g>
</g>
<!-- Node13&#45;&gt;Node18 -->
<g id="edge37" class="edge">
<title>Node13&#45;&gt;Node18</title>
<path fill="none" stroke="#63b8ff" d="M362.67,-274.75C362.79,-268.27 362.96,-259.16 363.12,-250.9"/>
<polygon fill="#63b8ff" stroke="#63b8ff" points="366.61,-251.02 363.3,-240.96 359.61,-250.89 366.61,-251.02"/>
</g>
<!-- Node19 -->
<g id="node19" class="node">
<title>Node19</title>
<g id="a_node19"><a xlink:href="_battery_icon_8h_source.html" target="_top" xlink:title=" ">
<polygon fill="white" stroke="#666666" points="538.5,-239 464.5,-239 464.5,-220 538.5,-220 538.5,-239"/>
<text text-anchor="middle" x="501.5" y="-227" font-family="Helvetica,sans-Serif" font-size="10.00">BatteryIcon.h</text>
</a>
</g>
</g>
<!-- Node13&#45;&gt;Node19 -->
<g id="edge41" class="edge">
<title>Node13&#45;&gt;Node19</title>
<path fill="none" stroke="#63b8ff" d="M385.77,-274.63C408.12,-266.11 442.14,-253.13 467.52,-243.45"/>
<polygon fill="#63b8ff" stroke="#63b8ff" points="468.65,-246.77 476.74,-239.94 466.15,-240.23 468.65,-246.77"/>
</g>
<!-- Node14&#45;&gt;Node4 -->
<g id="edge19" class="edge">
<title>Node14&#45;&gt;Node4</title>
<path fill="none" stroke="#63b8ff" d="M598.25,-219.9C599.01,-207.32 599.15,-183.41 591.5,-165 587.23,-154.73 579.74,-145.02 572.6,-137.31"/>
<polygon fill="#63b8ff" stroke="#63b8ff" points="575.21,-134.96 565.68,-130.33 570.24,-139.9 575.21,-134.96"/>
</g>
<!-- Node14&#45;&gt;Node6 -->
<g id="edge18" class="edge">
<title>Node14&#45;&gt;Node6</title>
<path fill="none" stroke="#63b8ff" d="M625.88,-229.09C660.12,-228.08 716.45,-220.52 743.5,-184 777.77,-137.73 753.27,-64.23 738.5,-29.66"/>
<polygon fill="#63b8ff" stroke="#63b8ff" points="741.7,-28.24 734.41,-20.54 735.31,-31.1 741.7,-28.24"/>
</g>
<!-- Node14&#45;&gt;Node7 -->
<g id="edge21" class="edge">
<title>Node14&#45;&gt;Node7</title>
<path fill="none" stroke="#63b8ff" d="M601.91,-219.75C613.27,-196.65 643.33,-131.89 653.5,-74 656.02,-59.66 655.94,-43.21 655.27,-30.64"/>
<polygon fill="#63b8ff" stroke="#63b8ff" points="658.76,-30.44 654.55,-20.72 651.78,-30.95 658.76,-30.44"/>
</g>
<!-- Node14&#45;&gt;Node12 -->
<g id="edge20" class="edge">
<title>Node14&#45;&gt;Node12</title>
<path fill="none" stroke="#63b8ff" d="M569.39,-222.11C529.36,-213 455.56,-196.21 408.31,-185.47"/>
<polygon fill="#63b8ff" stroke="#63b8ff" points="409.2,-182.08 398.67,-183.27 407.65,-188.9 409.2,-182.08"/>
</g>
<!-- Node15&#45;&gt;Node4 -->
<g id="edge25" class="edge">
<title>Node15&#45;&gt;Node4</title>
<path fill="none" stroke="#63b8ff" d="M436.97,-219.66C458.45,-201.55 507.73,-159.96 535.17,-136.81"/>
<polygon fill="#63b8ff" stroke="#63b8ff" points="537.34,-139.56 542.72,-130.44 532.82,-134.21 537.34,-139.56"/>
</g>
<!-- Node15&#45;&gt;Node11 -->
<g id="edge24" class="edge">
<title>Node15&#45;&gt;Node11</title>
<path fill="none" stroke="#63b8ff" d="M424.22,-219.65C420.87,-207.16 414.07,-183.81 405.5,-165 392.02,-135.39 371.97,-103.41 359.07,-83.92"/>
<polygon fill="#63b8ff" stroke="#63b8ff" points="362.05,-82.07 353.57,-75.72 356.24,-85.98 362.05,-82.07"/>
</g>
<!-- Node15&#45;&gt;Node12 -->
<g id="edge26" class="edge">
<title>Node15&#45;&gt;Node12</title>
<path fill="none" stroke="#63b8ff" d="M415.98,-219.51C407.11,-211.93 394.19,-200.88 383.51,-191.75"/>
<polygon fill="#63b8ff" stroke="#63b8ff" points="385.89,-189.18 376.01,-185.34 381.34,-194.5 385.89,-189.18"/>
</g>
<!-- Node16&#45;&gt;Node2 -->
<g id="edge29" class="edge">
<title>Node16&#45;&gt;Node2</title>
<path fill="none" stroke="#63b8ff" d="M235.31,-219.66C198.94,-200.95 113.89,-157.21 69.91,-134.6"/>
<polygon fill="#63b8ff" stroke="#63b8ff" points="71.76,-131.61 61.27,-130.15 68.56,-137.84 71.76,-131.61"/>
</g>
<!-- Node16&#45;&gt;Node4 -->
<g id="edge30" class="edge">
<title>Node16&#45;&gt;Node4</title>
<path fill="none" stroke="#63b8ff" d="M259.21,-219.91C270.62,-205.98 295.2,-178.63 322.5,-165 380.08,-136.25 454.24,-126.02 503.02,-122.42"/>
<polygon fill="#63b8ff" stroke="#63b8ff" points="502.98,-125.93 512.73,-121.77 502.52,-118.94 502.98,-125.93"/>
</g>
<!-- Node16&#45;&gt;Node11 -->
<g id="edge28" class="edge">
<title>Node16&#45;&gt;Node11</title>
<path fill="none" stroke="#63b8ff" d="M257.01,-219.75C267.28,-199.94 293.39,-150.26 317.5,-110 322.77,-101.2 328.94,-91.64 334.23,-83.65"/>
<polygon fill="#63b8ff" stroke="#63b8ff" points="337.03,-85.76 339.68,-75.5 331.21,-81.86 337.03,-85.76"/>
</g>
<!-- Node16&#45;&gt;Node12 -->
<g id="edge31" class="edge">
<title>Node16&#45;&gt;Node12</title>
<path fill="none" stroke="#63b8ff" d="M271.5,-219.51C289.06,-211.2 315.42,-198.73 335.59,-189.18"/>
<polygon fill="#63b8ff" stroke="#63b8ff" points="336.87,-192.45 344.41,-185.01 333.88,-186.12 336.87,-192.45"/>
</g>
<!-- Node17&#45;&gt;Node2 -->
<g id="edge34" class="edge">
<title>Node17&#45;&gt;Node2</title>
<path fill="none" stroke="#63b8ff" d="M140.38,-219.7C129.59,-210.99 112.93,-197.12 99.5,-184 84.32,-169.17 68.28,-151.06 57.1,-137.98"/>
<polygon fill="#63b8ff" stroke="#63b8ff" points="60,-135.99 50.87,-130.62 54.66,-140.51 60,-135.99"/>
</g>
<!-- Node17&#45;&gt;Node4 -->
<g id="edge35" class="edge">
<title>Node17&#45;&gt;Node4</title>
<path fill="none" stroke="#63b8ff" d="M167.35,-219.66C192.76,-205.88 244.54,-179.36 291.5,-165 363.08,-143.11 449.12,-131.13 502.82,-125.26"/>
<polygon fill="#63b8ff" stroke="#63b8ff" points="503.02,-128.76 512.6,-124.23 502.28,-121.8 503.02,-128.76"/>
</g>
<!-- Node17&#45;&gt;Node11 -->
<g id="edge33" class="edge">
<title>Node17&#45;&gt;Node11</title>
<path fill="none" stroke="#63b8ff" d="M162.26,-219.5C193.9,-193.06 286.91,-115.31 327.35,-81.5"/>
<polygon fill="#63b8ff" stroke="#63b8ff" points="329.42,-84.34 334.85,-75.24 324.93,-78.97 329.42,-84.34"/>
</g>
<!-- Node17&#45;&gt;Node12 -->
<g id="edge36" class="edge">
<title>Node17&#45;&gt;Node12</title>
<path fill="none" stroke="#63b8ff" d="M177.19,-222.11C212.74,-213.26 277.43,-197.16 320.69,-186.4"/>
<polygon fill="#63b8ff" stroke="#63b8ff" points="321.41,-189.83 330.27,-184.02 319.72,-183.03 321.41,-189.83"/>
</g>
<!-- Node18&#45;&gt;Node4 -->
<g id="edge39" class="edge">
<title>Node18&#45;&gt;Node4</title>
<path fill="none" stroke="#63b8ff" d="M379.13,-219.66C412.01,-201.07 488.59,-157.77 528.8,-135.03"/>
<polygon fill="#63b8ff" stroke="#63b8ff" points="530.35,-138.17 537.34,-130.21 526.91,-132.08 530.35,-138.17"/>
</g>
<!-- Node18&#45;&gt;Node11 -->
<g id="edge38" class="edge">
<title>Node18&#45;&gt;Node11</title>
<path fill="none" stroke="#63b8ff" d="M351.57,-219.8C341.67,-211.77 328.31,-198.87 322.5,-184 309.38,-150.39 324.69,-108.5 336.18,-84.59"/>
<polygon fill="#63b8ff" stroke="#63b8ff" points="339.25,-86.26 340.68,-75.76 333.02,-83.08 339.25,-86.26"/>
</g>
<!-- Node18&#45;&gt;Node12 -->
<g id="edge40" class="edge">
<title>Node18&#45;&gt;Node12</title>
<path fill="none" stroke="#63b8ff" d="M363.67,-219.75C363.79,-213.27 363.96,-204.16 364.12,-195.9"/>
<polygon fill="#63b8ff" stroke="#63b8ff" points="367.61,-196.02 364.3,-185.96 360.61,-195.89 367.61,-196.02"/>
</g>
<!-- Node19&#45;&gt;Node4 -->
<g id="edge44" class="edge">
<title>Node19&#45;&gt;Node4</title>
<path fill="none" stroke="#63b8ff" d="M517.96,-219.61C530.25,-211.97 546.12,-199.7 553.5,-184 559.9,-170.39 559.76,-153.25 558.24,-140.22"/>
<polygon fill="#63b8ff" stroke="#63b8ff" points="561.75,-140.05 556.75,-130.71 554.84,-141.13 561.75,-140.05"/>
</g>
<!-- Node19&#45;&gt;Node6 -->
<g id="edge43" class="edge">
<title>Node19&#45;&gt;Node6</title>
<path fill="none" stroke="#63b8ff" d="M517.39,-219.62C531.68,-211.29 552.92,-198.04 569.5,-184 629.57,-133.13 689.6,-60.89 715.81,-28.01"/>
<polygon fill="#63b8ff" stroke="#63b8ff" points="718.43,-30.34 721.88,-20.33 712.94,-26 718.43,-30.34"/>
</g>
<!-- Node19&#45;&gt;Node11 -->
<g id="edge42" class="edge">
<title>Node19&#45;&gt;Node11</title>
<path fill="none" stroke="#63b8ff" d="M494.2,-219.56C477.58,-199.35 435.33,-148.92 396.5,-110 386.77,-100.25 375.34,-89.99 365.86,-81.79"/>
<polygon fill="#63b8ff" stroke="#63b8ff" points="368.2,-79.18 358.32,-75.34 363.65,-84.5 368.2,-79.18"/>
</g>
<!-- Node19&#45;&gt;Node12 -->
<g id="edge45" class="edge">
<title>Node19&#45;&gt;Node12</title>
<path fill="none" stroke="#63b8ff" d="M478.26,-219.51C456.18,-210.97 422.75,-198.03 397.83,-188.4"/>
<polygon fill="#63b8ff" stroke="#63b8ff" points="399.4,-185.25 388.81,-184.9 396.87,-191.78 399.4,-185.25"/>
</g>
</g>
</svg>
