<?xml version="1.0" encoding="UTF-8" standalone="no"?>
<!DOCTYPE svg PUBLIC "-//W3C//DTD SVG 1.1//EN"
 "http://www.w3.org/Graphics/SVG/1.1/DTD/svg11.dtd">
<!-- Generated by graphviz version 7.0.5 (20221223.1930)
 -->
<!-- Title: m5avatar::BaseEyebrow Pages: 1 -->
<svg width="418pt" height="357pt"
 viewBox="0.00 0.00 417.50 357.00" xmlns="http://www.w3.org/2000/svg" xmlns:xlink="http://www.w3.org/1999/xlink">
<g id="graph0" class="graph" transform="scale(1 1) rotate(0) translate(4 353)">
<title>m5avatar::BaseEyebrow</title>
<!-- Node1 -->
<g id="node1" class="node">
<title>Node1</title>
<g id="a_node1"><a xlink:title=" ">
<polygon fill="#999999" stroke="#666666" points="266.5,-261 142.5,-261 142.5,-99 266.5,-99 266.5,-261"/>
<text text-anchor="middle" x="204.5" y="-249" font-family="Helvetica,sans-Serif" font-size="10.00">{m5avatar::BaseEyebrow</text>
<text text-anchor="start" x="150.5" y="-238" font-family="Helvetica,sans-Serif" font-size="10.00">|# height_</text>
<text text-anchor="start" x="150.5" y="-227" font-family="Helvetica,sans-Serif" font-size="10.00"># width_</text>
<text text-anchor="start" x="150.5" y="-216" font-family="Helvetica,sans-Serif" font-size="10.00"># is_left_</text>
<text text-anchor="start" x="150.5" y="-205" font-family="Helvetica,sans-Serif" font-size="10.00"># primary_color_</text>
<text text-anchor="start" x="150.5" y="-194" font-family="Helvetica,sans-Serif" font-size="10.00"># secondary_color_</text>
<text text-anchor="start" x="150.5" y="-183" font-family="Helvetica,sans-Serif" font-size="10.00"># background_color_</text>
<text text-anchor="start" x="150.5" y="-172" font-family="Helvetica,sans-Serif" font-size="10.00"># center_x_</text>
<text text-anchor="start" x="150.5" y="-161" font-family="Helvetica,sans-Serif" font-size="10.00"># center_y_</text>
<text text-anchor="start" x="150.5" y="-150" font-family="Helvetica,sans-Serif" font-size="10.00"># expression_</text>
<text text-anchor="start" x="150.5" y="-139" font-family="Helvetica,sans-Serif" font-size="10.00">|+ BaseEyebrow()</text>
<text text-anchor="start" x="150.5" y="-128" font-family="Helvetica,sans-Serif" font-size="10.00">+ BaseEyebrow()</text>
<text text-anchor="start" x="150.5" y="-117" font-family="Helvetica,sans-Serif" font-size="10.00">+ update()</text>
<text text-anchor="middle" x="204.5" y="-106" font-family="Helvetica,sans-Serif" font-size="10.00">}</text>
</a>
</g>
</g>
<!-- Node3 -->
<g id="node3" class="node">
<title>Node3</title>
<g id="a_node3"><a xlink:href="classm5avatar_1_1_bow_eyebrow.html" target="_top" xlink:title=" ">
<polygon fill="white" stroke="#bfbfbf" points="121,-63 0,-63 0,0 121,0 121,-63"/>
<text text-anchor="middle" x="60.5" y="-51" font-family="Helvetica,sans-Serif" font-size="10.00">{m5avatar::BowEyebrow</text>
<text text-anchor="start" x="8" y="-40" font-family="Helvetica,sans-Serif" font-size="10.00">||+ draw()</text>
<text text-anchor="start" x="8" y="-29" font-family="Helvetica,sans-Serif" font-size="10.00">+ BaseEyebrow()</text>
<text text-anchor="start" x="8" y="-18" font-family="Helvetica,sans-Serif" font-size="10.00">+ BaseEyebrow()</text>
<text text-anchor="middle" x="60.5" y="-7" font-family="Helvetica,sans-Serif" font-size="10.00">}</text>
</a>
</g>
</g>
<!-- Node1&#45;&gt;Node3 -->
<g id="edge2" class="edge">
<title>Node1&#45;&gt;Node3</title>
<path fill="none" stroke="#63b8ff" d="M134.22,-107.5C118.95,-91.97 103.58,-76.33 90.86,-63.39"/>
<polygon fill="none" stroke="#63b8ff" points="131.61,-109.84 141.12,-114.52 136.6,-104.93 131.61,-109.84"/>
</g>
<!-- Node4 -->
<g id="node4" class="node">
<title>Node4</title>
<g id="a_node4"><a xlink:href="classm5avatar_1_1_ellipse_eyebrow.html" target="_top" xlink:title=" ">
<polygon fill="white" stroke="#bfbfbf" points="269.5,-63 139.5,-63 139.5,0 269.5,0 269.5,-63"/>
<text text-anchor="middle" x="204.5" y="-51" font-family="Helvetica,sans-Serif" font-size="10.00">{m5avatar::EllipseEyebrow</text>
<text text-anchor="start" x="147.5" y="-40" font-family="Helvetica,sans-Serif" font-size="10.00">||+ draw()</text>
<text text-anchor="start" x="147.5" y="-29" font-family="Helvetica,sans-Serif" font-size="10.00">+ BaseEyebrow()</text>
<text text-anchor="start" x="147.5" y="-18" font-family="Helvetica,sans-Serif" font-size="10.00">+ BaseEyebrow()</text>
<text text-anchor="middle" x="204.5" y="-7" font-family="Helvetica,sans-Serif" font-size="10.00">}</text>
</a>
</g>
</g>
<!-- Node1&#45;&gt;Node4 -->
<g id="edge3" class="edge">
<title>Node1&#45;&gt;Node4</title>
<path fill="none" stroke="#63b8ff" d="M204.5,-87.41C204.5,-78.8 204.5,-70.56 204.5,-63.19"/>
<polygon fill="none" stroke="#63b8ff" points="201,-87.38 204.5,-97.38 208,-87.38 201,-87.38"/>
</g>
<!-- Node5 -->
<g id="node5" class="node">
<title>Node5</title>
<g id="a_node5"><a xlink:href="classm5avatar_1_1_rect_eyebrow.html" target="_top" xlink:title=" ">
<polygon fill="white" stroke="#bfbfbf" points="409.5,-63 287.5,-63 287.5,0 409.5,0 409.5,-63"/>
<text text-anchor="middle" x="348.5" y="-51" font-family="Helvetica,sans-Serif" font-size="10.00">{m5avatar::RectEyebrow</text>
<text text-anchor="start" x="295.5" y="-40" font-family="Helvetica,sans-Serif" font-size="10.00">||+ draw()</text>
<text text-anchor="start" x="295.5" y="-29" font-family="Helvetica,sans-Serif" font-size="10.00">+ BaseEyebrow()</text>
<text text-anchor="start" x="295.5" y="-18" font-family="Helvetica,sans-Serif" font-size="10.00">+ BaseEyebrow()</text>
<text text-anchor="middle" x="348.5" y="-7" font-family="Helvetica,sans-Serif" font-size="10.00">}</text>
</a>
</g>
</g>
<!-- Node1&#45;&gt;Node5 -->
<g id="edge4" class="edge">
<title>Node1&#45;&gt;Node5</title>
<path fill="none" stroke="#63b8ff" d="M274.78,-107.5C290.05,-91.97 305.42,-76.33 318.14,-63.39"/>
<polygon fill="none" stroke="#63b8ff" points="272.4,-104.93 267.88,-114.52 277.39,-109.84 272.4,-104.93"/>
</g>
<!-- Node2 -->
<g id="node2" class="node">
<title>Node2</title>
<g id="a_node2"><a xlink:href="classm5avatar_1_1_drawable.html" target="_top" xlink:title=" ">
<polygon fill="white" stroke="#bfbfbf" points="257,-349 152,-349 152,-297 257,-297 257,-349"/>
<text text-anchor="middle" x="204.5" y="-337" font-family="Helvetica,sans-Serif" font-size="10.00">{m5avatar::Drawable</text>
<text text-anchor="start" x="160" y="-326" font-family="Helvetica,sans-Serif" font-size="10.00">||+ ~Drawable()</text>
<text text-anchor="start" x="160" y="-315" font-family="Helvetica,sans-Serif" font-size="10.00">+ draw()</text>
<text text-anchor="middle" x="204.5" y="-304" font-family="Helvetica,sans-Serif" font-size="10.00">}</text>
</a>
</g>
</g>
<!-- Node2&#45;&gt;Node1 -->
<g id="edge1" class="edge">
<title>Node2&#45;&gt;Node1</title>
<path fill="none" stroke="#63b8ff" d="M204.5,-285.55C204.5,-277.98 204.5,-269.73 204.5,-261.29"/>
<polygon fill="none" stroke="#63b8ff" points="201,-285.28 204.5,-295.28 208,-285.28 201,-285.28"/>
</g>
</g>
</svg>
