<?xml version="1.0" encoding="UTF-8" standalone="no"?>
<!DOCTYPE svg PUBLIC "-//W3C//DTD SVG 1.1//EN"
 "http://www.w3.org/Graphics/SVG/1.1/DTD/svg11.dtd">
<!-- Generated by graphviz version 7.0.5 (20221223.1930)
 -->
<!-- Title: m5avatar::Face Pages: 1 -->
<svg width="1175pt" height="236pt"
 viewBox="0.00 0.00 1175.00 236.00" xmlns="http://www.w3.org/2000/svg" xmlns:xlink="http://www.w3.org/1999/xlink">
<g id="graph0" class="graph" transform="scale(1 1) rotate(0) translate(4 232)">
<title>m5avatar::Face</title>
<!-- Node1 -->
<g id="node1" class="node">
<title>Node1</title>
<g id="a_node1"><a xlink:title=" ">
<polygon fill="#999999" stroke="#666666" points="603,-228 517,-228 517,-77 603,-77 603,-228"/>
<text text-anchor="middle" x="560" y="-216" font-family="Helvetica,sans-Serif" font-size="10.00">{m5avatar::Face</text>
<text text-anchor="start" x="525" y="-205" font-family="Helvetica,sans-Serif" font-size="10.00">||+ Face()</text>
<text text-anchor="start" x="525" y="-194" font-family="Helvetica,sans-Serif" font-size="10.00">+ Face()</text>
<text text-anchor="start" x="525" y="-183" font-family="Helvetica,sans-Serif" font-size="10.00">+ Face()</text>
<text text-anchor="start" x="525" y="-172" font-family="Helvetica,sans-Serif" font-size="10.00">+ Face()</text>
<text text-anchor="start" x="525" y="-161" font-family="Helvetica,sans-Serif" font-size="10.00">+ ~Face()</text>
<text text-anchor="start" x="525" y="-150" font-family="Helvetica,sans-Serif" font-size="10.00">+ Face()</text>
<text text-anchor="start" x="525" y="-139" font-family="Helvetica,sans-Serif" font-size="10.00">+ operator=()</text>
<text text-anchor="start" x="525" y="-128" font-family="Helvetica,sans-Serif" font-size="10.00">+ getLeftEye()</text>
<text text-anchor="start" x="525" y="-117" font-family="Helvetica,sans-Serif" font-size="10.00">+ getRightEye()</text>
<text text-anchor="start" x="525" y="-106" font-family="Helvetica,sans-Serif" font-size="10.00">+ getMouth()</text>
<text text-anchor="start" x="525" y="-95" font-family="Helvetica,sans-Serif" font-size="10.00">and 7 more...</text>
<text text-anchor="middle" x="560" y="-84" font-family="Helvetica,sans-Serif" font-size="10.00">}</text>
</a>
</g>
</g>
<!-- Node2 -->
<g id="node2" class="node">
<title>Node2</title>
<g id="a_node2"><a xlink:href="classm5avatar_1_1_b_m_p_face.html" target="_top" xlink:title=" ">
<polygon fill="white" stroke="#bfbfbf" points="108,-41 0,-41 0,0 108,0 108,-41"/>
<text text-anchor="middle" x="54" y="-29" font-family="Helvetica,sans-Serif" font-size="10.00">{m5avatar::BMPFace</text>
<text text-anchor="start" x="8" y="-18" font-family="Helvetica,sans-Serif" font-size="10.00">||+ BMPFace()</text>
<text text-anchor="middle" x="54" y="-7" font-family="Helvetica,sans-Serif" font-size="10.00">}</text>
</a>
</g>
</g>
<!-- Node1&#45;&gt;Node2 -->
<g id="edge1" class="edge">
<title>Node1&#45;&gt;Node2</title>
<path fill="none" stroke="#63b8ff" d="M505.69,-138.98C421.9,-119.44 256.23,-79.88 117,-41 114.13,-40.2 111.2,-39.36 108.24,-38.5"/>
<polygon fill="none" stroke="#63b8ff" points="504.71,-142.35 515.24,-141.21 506.29,-135.53 504.71,-142.35"/>
</g>
<!-- Node3 -->
<g id="node3" class="node">
<title>Node3</title>
<g id="a_node3"><a xlink:href="classm5avatar_1_1_dog_face.html" target="_top" xlink:title=" ">
<polygon fill="white" stroke="#bfbfbf" points="230,-41 126,-41 126,0 230,0 230,-41"/>
<text text-anchor="middle" x="178" y="-29" font-family="Helvetica,sans-Serif" font-size="10.00">{m5avatar::DogFace</text>
<text text-anchor="start" x="134" y="-18" font-family="Helvetica,sans-Serif" font-size="10.00">||+ DogFace()</text>
<text text-anchor="middle" x="178" y="-7" font-family="Helvetica,sans-Serif" font-size="10.00">}</text>
</a>
</g>
</g>
<!-- Node1&#45;&gt;Node3 -->
<g id="edge2" class="edge">
<title>Node1&#45;&gt;Node3</title>
<path fill="none" stroke="#63b8ff" d="M505.72,-133.03C432.38,-108.07 302.51,-63.87 230.24,-39.28"/>
<polygon fill="none" stroke="#63b8ff" points="504.52,-136.32 515.12,-136.23 506.78,-129.69 504.52,-136.32"/>
</g>
<!-- Node4 -->
<g id="node4" class="node">
<title>Node4</title>
<g id="a_node4"><a xlink:href="classm5avatar_1_1_doggy_face.html" target="_top" xlink:title=" ">
<polygon fill="white" stroke="#bfbfbf" points="361.5,-41 248.5,-41 248.5,0 361.5,0 361.5,-41"/>
<text text-anchor="middle" x="305" y="-29" font-family="Helvetica,sans-Serif" font-size="10.00">{m5avatar::DoggyFace</text>
<text text-anchor="start" x="256.5" y="-18" font-family="Helvetica,sans-Serif" font-size="10.00">||+ DoggyFace()</text>
<text text-anchor="middle" x="305" y="-7" font-family="Helvetica,sans-Serif" font-size="10.00">}</text>
</a>
</g>
</g>
<!-- Node1&#45;&gt;Node4 -->
<g id="edge3" class="edge">
<title>Node1&#45;&gt;Node4</title>
<path fill="none" stroke="#63b8ff" d="M506.72,-124.34C458.09,-99.55 387.36,-63.49 343.87,-41.31"/>
<polygon fill="none" stroke="#63b8ff" points="504.9,-127.34 515.39,-128.76 508.07,-121.1 504.9,-127.34"/>
</g>
<!-- Node5 -->
<g id="node5" class="node">
<title>Node5</title>
<g id="a_node5"><a xlink:href="classm5avatar_1_1_girly_face.html" target="_top" xlink:title=" ">
<polygon fill="white" stroke="#bfbfbf" points="486,-41 380,-41 380,0 486,0 486,-41"/>
<text text-anchor="middle" x="433" y="-29" font-family="Helvetica,sans-Serif" font-size="10.00">{m5avatar::GirlyFace</text>
<text text-anchor="start" x="388" y="-18" font-family="Helvetica,sans-Serif" font-size="10.00">||+ GirlyFace()</text>
<text text-anchor="middle" x="433" y="-7" font-family="Helvetica,sans-Serif" font-size="10.00">}</text>
</a>
</g>
</g>
<!-- Node1&#45;&gt;Node5 -->
<g id="edge4" class="edge">
<title>Node1&#45;&gt;Node5</title>
<path fill="none" stroke="#63b8ff" d="M508.84,-99.13C488.97,-78.79 467.42,-56.73 452.38,-41.34"/>
<polygon fill="none" stroke="#63b8ff" points="506.1,-101.33 515.59,-106.04 511.11,-96.44 506.1,-101.33"/>
</g>
<!-- Node6 -->
<g id="node6" class="node">
<title>Node6</title>
<g id="a_node6"><a xlink:href="classm5avatar_1_1_girly_face2.html" target="_top" xlink:title=" ">
<polygon fill="white" stroke="#bfbfbf" points="615.5,-41 504.5,-41 504.5,0 615.5,0 615.5,-41"/>
<text text-anchor="middle" x="560" y="-29" font-family="Helvetica,sans-Serif" font-size="10.00">{m5avatar::GirlyFace2</text>
<text text-anchor="start" x="512.5" y="-18" font-family="Helvetica,sans-Serif" font-size="10.00">||+ GirlyFace2()</text>
<text text-anchor="middle" x="560" y="-7" font-family="Helvetica,sans-Serif" font-size="10.00">}</text>
</a>
</g>
</g>
<!-- Node1&#45;&gt;Node6 -->
<g id="edge5" class="edge">
<title>Node1&#45;&gt;Node6</title>
<path fill="none" stroke="#63b8ff" d="M560,-65.27C560,-56.5 560,-48.31 560,-41.44"/>
<polygon fill="none" stroke="#63b8ff" points="556.5,-65.12 560,-75.12 563.5,-65.12 556.5,-65.12"/>
</g>
<!-- Node7 -->
<g id="node7" class="node">
<title>Node7</title>
<g id="a_node7"><a xlink:href="classm5avatar_1_1_oled_face.html" target="_top" xlink:title=" ">
<polygon fill="white" stroke="#bfbfbf" points="740.5,-41 633.5,-41 633.5,0 740.5,0 740.5,-41"/>
<text text-anchor="middle" x="687" y="-29" font-family="Helvetica,sans-Serif" font-size="10.00">{m5avatar::OledFace</text>
<text text-anchor="start" x="641.5" y="-18" font-family="Helvetica,sans-Serif" font-size="10.00">||+ OledFace()</text>
<text text-anchor="middle" x="687" y="-7" font-family="Helvetica,sans-Serif" font-size="10.00">}</text>
</a>
</g>
</g>
<!-- Node1&#45;&gt;Node7 -->
<g id="edge6" class="edge">
<title>Node1&#45;&gt;Node7</title>
<path fill="none" stroke="#63b8ff" d="M611.16,-99.13C631.03,-78.79 652.58,-56.73 667.62,-41.34"/>
<polygon fill="none" stroke="#63b8ff" points="608.89,-96.44 604.41,-106.04 613.9,-101.33 608.89,-96.44"/>
</g>
<!-- Node8 -->
<g id="node8" class="node">
<title>Node8</title>
<g id="a_node8"><a xlink:href="classm5avatar_1_1_omega_face.html" target="_top" xlink:title="face template for &quot;OωO&quot; face">
<polygon fill="white" stroke="#666666" points="877,-41 759,-41 759,0 877,0 877,-41"/>
<text text-anchor="middle" x="818" y="-29" font-family="Helvetica,sans-Serif" font-size="10.00">{m5avatar::OmegaFace</text>
<text text-anchor="start" x="767" y="-18" font-family="Helvetica,sans-Serif" font-size="10.00">||+ OmegaFace()</text>
<text text-anchor="middle" x="818" y="-7" font-family="Helvetica,sans-Serif" font-size="10.00">}</text>
</a>
</g>
</g>
<!-- Node1&#45;&gt;Node8 -->
<g id="edge7" class="edge">
<title>Node1&#45;&gt;Node8</title>
<path fill="none" stroke="#63b8ff" d="M613.61,-124.49C662.78,-99.71 734.48,-63.58 778.58,-41.36"/>
<polygon fill="none" stroke="#63b8ff" points="612.18,-121.29 604.83,-128.91 615.33,-127.54 612.18,-121.29"/>
</g>
<!-- Node9 -->
<g id="node9" class="node">
<title>Node9</title>
<g id="a_node9"><a xlink:href="classm5avatar_1_1_pink_demon_face.html" target="_top" xlink:title=" ">
<polygon fill="white" stroke="#bfbfbf" points="1032.5,-41 895.5,-41 895.5,0 1032.5,0 1032.5,-41"/>
<text text-anchor="middle" x="964" y="-29" font-family="Helvetica,sans-Serif" font-size="10.00">{m5avatar::PinkDemonFace</text>
<text text-anchor="start" x="903.5" y="-18" font-family="Helvetica,sans-Serif" font-size="10.00">||+ PinkDemonFace()</text>
<text text-anchor="middle" x="964" y="-7" font-family="Helvetica,sans-Serif" font-size="10.00">}</text>
</a>
</g>
</g>
<!-- Node1&#45;&gt;Node9 -->
<g id="edge8" class="edge">
<title>Node1&#45;&gt;Node9</title>
<path fill="none" stroke="#63b8ff" d="M613.8,-134.19C688.48,-110.16 823.23,-66.8 902.02,-41.44"/>
<polygon fill="none" stroke="#63b8ff" points="613.12,-130.73 604.68,-137.12 615.27,-137.39 613.12,-130.73"/>
</g>
<!-- Node10 -->
<g id="node10" class="node">
<title>Node10</title>
<g id="a_node10"><a xlink:href="classm5avatar_1_1_simple_face.html" target="_top" xlink:title="face template for &quot;o_o&quot;">
<polygon fill="white" stroke="#666666" points="1167,-41 1051,-41 1051,0 1167,0 1167,-41"/>
<text text-anchor="middle" x="1109" y="-29" font-family="Helvetica,sans-Serif" font-size="10.00">{m5avatar::SimpleFace</text>
<text text-anchor="start" x="1059" y="-18" font-family="Helvetica,sans-Serif" font-size="10.00">||+ SimpleFace()</text>
<text text-anchor="middle" x="1109" y="-7" font-family="Helvetica,sans-Serif" font-size="10.00">}</text>
</a>
</g>
</g>
<!-- Node1&#45;&gt;Node10 -->
<g id="edge9" class="edge">
<title>Node1&#45;&gt;Node10</title>
<path fill="none" stroke="#63b8ff" d="M614.64,-140.05C704.28,-121.03 887.97,-81.03 1042,-41 1044.81,-40.27 1047.69,-39.5 1050.59,-38.72"/>
<polygon fill="none" stroke="#63b8ff" points="613.95,-136.62 604.89,-142.12 615.4,-143.47 613.95,-136.62"/>
</g>
</g>
</svg>
