<?xml version="1.0" encoding="UTF-8" standalone="no"?>
<!DOCTYPE svg PUBLIC "-//W3C//DTD SVG 1.1//EN"
 "http://www.w3.org/Graphics/SVG/1.1/DTD/svg11.dtd">
<!-- Generated by graphviz version 7.0.5 (20221223.1930)
 -->
<!-- Title: m5avatar::Drawable Pages: 1 -->
<!--zoomable 203 -->
<svg id="main" version="1.1" xmlns="http://www.w3.org/2000/svg" xmlns:xlink="http://www.w3.org/1999/xlink" xml:space="preserve" onload="init(evt)">
<style type="text/css"><![CDATA[
.edge:hover path { stroke: red; }
.edge:hover polygon { stroke: red; fill: red; }
]]></style>
<script type="text/javascript"><![CDATA[
var edges = document.getElementsByTagName('g');
if (edges && edges.length) {
  for (var i=0;i<edges.length;i++) {
    if (edges[i].id.substr(0,4)=='edge') {
      edges[i].setAttribute('class','edge');
    }
  }
}
]]></script>
        <defs>
                <circle id="rim" cx="0" cy="0" r="7"/>
                <circle id="rim2" cx="0" cy="0" r="3.5"/>
                <g id="zoomPlus">
                        <use xlink:href="#rim" fill="#404040">
                                <set attributeName="fill" to="#808080" begin="zoomplus.mouseover" end="zoomplus.mouseout"/>
                        </use>
                        <path d="M-4,0h8M0,-4v8" fill="none" stroke="white" stroke-width="1.5" pointer-events="none"/>
                </g>
                <g id="zoomMin">
                        <use xlink:href="#rim" fill="#404040">
                                <set attributeName="fill" to="#808080" begin="zoomminus.mouseover" end="zoomminus.mouseout"/>
                        </use>
                        <path d="M-4,0h8" fill="none" stroke="white" stroke-width="1.5" pointer-events="none"/>
                </g>
                <g id="dirArrow">
                        <path fill="none" stroke="white" stroke-width="1.5" d="M0,-3.0v7 M-2.5,-0.5L0,-3.0L2.5,-0.5"/>
                </g>
               <g id="resetDef">
                       <use xlink:href="#rim2" fill="#404040">
                               <set attributeName="fill" to="#808080" begin="reset.mouseover" end="reset.mouseout"/>
                       </use>
               </g>
        </defs>

<script type="text/javascript">
var viewWidth = 1037;
var viewHeight = 203;
var sectionId = 'dynsection-0';
</script>
<script xlink:href="svgpan.js"/>
<svg id="graph" class="graph">
<g id="viewport">
<title>m5avatar::Drawable</title>
<!-- Node1 -->
<g id="node1" class="node">
<title>Node1</title>
<g id="a_node1"><a xlink:title=" ">
<polygon fill="#999999" stroke="#666666" points="591.5,-195 486.5,-195 486.5,-143 591.5,-143 591.5,-195"/>
<text text-anchor="middle" x="539" y="-183" font-family="Helvetica,sans-Serif" font-size="10.00">{m5avatar::Drawable</text>
<text text-anchor="start" x="494.5" y="-172" font-family="Helvetica,sans-Serif" font-size="10.00">||+ ~Drawable()</text>
<text text-anchor="start" x="494.5" y="-161" font-family="Helvetica,sans-Serif" font-size="10.00">+ draw()</text>
<text text-anchor="middle" x="539" y="-150" font-family="Helvetica,sans-Serif" font-size="10.00">}</text>
</a>
</g>
</g>
<!-- Node2 -->
<g id="node2" class="node">
<title>Node2</title>
<g id="a_node2"><a xlink:href="classm5avatar_1_1_b_m_p_eye.html" target="_top" xlink:title=" ">
<polygon fill="white" stroke="#bfbfbf" points="102,-68.5 0,-68.5 0,-38.5 102,-38.5 102,-68.5"/>
<text text-anchor="middle" x="51" y="-56.5" font-family="Helvetica,sans-Serif" font-size="10.00">{m5avatar::BMPEye</text>
<text text-anchor="middle" x="51" y="-45.5" font-family="Helvetica,sans-Serif" font-size="10.00">||}</text>
</a>
</g>
</g>
<!-- Node1&#45;&gt;Node2 -->
<g id="edge1" class="edge">
<title>Node1&#45;&gt;Node2</title>
<path fill="none" stroke="#63b8ff" d="M475.17,-163.38C372.2,-155.18 174.53,-136.15 111,-107 91.63,-98.11 73.85,-80.92 62.76,-68.63"/>
<polygon fill="none" stroke="#63b8ff" points="474.59,-166.84 484.83,-164.13 475.14,-159.86 474.59,-166.84"/>
</g>
<!-- Node3 -->
<g id="node3" class="node">
<title>Node3</title>
<g id="a_node3"><a xlink:href="classm5avatar_1_1_balloon.html" target="_top" xlink:title=" ">
<polygon fill="white" stroke="#bfbfbf" points="217.5,-96 120.5,-96 120.5,-11 217.5,-11 217.5,-96"/>
<text text-anchor="middle" x="169" y="-84" font-family="Helvetica,sans-Serif" font-size="10.00">{m5avatar::Balloon</text>
<text text-anchor="start" x="128.5" y="-73" font-family="Helvetica,sans-Serif" font-size="10.00">||+ Balloon()</text>
<text text-anchor="start" x="128.5" y="-62" font-family="Helvetica,sans-Serif" font-size="10.00">+ ~Balloon()</text>
<text text-anchor="start" x="128.5" y="-51" font-family="Helvetica,sans-Serif" font-size="10.00">+ Balloon()</text>
<text text-anchor="start" x="128.5" y="-40" font-family="Helvetica,sans-Serif" font-size="10.00">+ operator=()</text>
<text text-anchor="start" x="128.5" y="-29" font-family="Helvetica,sans-Serif" font-size="10.00">+ draw()</text>
<text text-anchor="middle" x="169" y="-18" font-family="Helvetica,sans-Serif" font-size="10.00">}</text>
</a>
</g>
</g>
<!-- Node1&#45;&gt;Node3 -->
<g id="edge2" class="edge">
<title>Node1&#45;&gt;Node3</title>
<path fill="none" stroke="#63b8ff" d="M474.91,-165.48C409.47,-160.68 306.49,-146.82 227,-107 221.17,-104.08 215.49,-100.41 210.1,-96.37"/>
<polygon fill="none" stroke="#63b8ff" points="474.55,-168.97 484.77,-166.15 475.03,-161.98 474.55,-168.97"/>
</g>
<!-- Node4 -->
<g id="node4" class="node">
<title>Node4</title>
<g id="a_node4"><a xlink:href="classm5avatar_1_1_battery_icon.html" target="_top" xlink:title=" ">
<polygon fill="white" stroke="#bfbfbf" points="350,-96 236,-96 236,-11 350,-11 350,-96"/>
<text text-anchor="middle" x="293" y="-84" font-family="Helvetica,sans-Serif" font-size="10.00">{m5avatar::BatteryIcon</text>
<text text-anchor="start" x="244" y="-73" font-family="Helvetica,sans-Serif" font-size="10.00">||+ BatteryIcon()</text>
<text text-anchor="start" x="244" y="-62" font-family="Helvetica,sans-Serif" font-size="10.00">+ ~BatteryIcon()</text>
<text text-anchor="start" x="244" y="-51" font-family="Helvetica,sans-Serif" font-size="10.00">+ BatteryIcon()</text>
<text text-anchor="start" x="244" y="-40" font-family="Helvetica,sans-Serif" font-size="10.00">+ operator=()</text>
<text text-anchor="start" x="244" y="-29" font-family="Helvetica,sans-Serif" font-size="10.00">+ draw()</text>
<text text-anchor="middle" x="293" y="-18" font-family="Helvetica,sans-Serif" font-size="10.00">}</text>
</a>
</g>
</g>
<!-- Node1&#45;&gt;Node4 -->
<g id="edge3" class="edge">
<title>Node1&#45;&gt;Node4</title>
<path fill="none" stroke="#63b8ff" d="M475.48,-152.29C439.97,-142.1 395.62,-126.97 359,-107 353.22,-103.84 347.43,-100.18 341.81,-96.27"/>
<polygon fill="none" stroke="#63b8ff" points="474.17,-155.56 484.74,-154.88 476.06,-148.82 474.17,-155.56"/>
</g>
<!-- Node5 -->
<g id="node5" class="node">
<title>Node5</title>
<g id="a_node5"><a xlink:href="classm5avatar_1_1_dog_eye.html" target="_top" xlink:title=" ">
<polygon fill="white" stroke="#bfbfbf" points="466,-68.5 368,-68.5 368,-38.5 466,-38.5 466,-68.5"/>
<text text-anchor="middle" x="417" y="-56.5" font-family="Helvetica,sans-Serif" font-size="10.00">{m5avatar::DogEye</text>
<text text-anchor="middle" x="417" y="-45.5" font-family="Helvetica,sans-Serif" font-size="10.00">||}</text>
</a>
</g>
</g>
<!-- Node1&#45;&gt;Node5 -->
<g id="edge4" class="edge">
<title>Node1&#45;&gt;Node5</title>
<path fill="none" stroke="#63b8ff" d="M503.26,-134.75C479.71,-112.84 450.07,-85.27 432.38,-68.81"/>
<polygon fill="none" stroke="#63b8ff" points="500.81,-137.25 510.51,-141.5 505.58,-132.12 500.81,-137.25"/>
</g>
<!-- Node6 -->
<g id="node6" class="node">
<title>Node6</title>
<g id="a_node6"><a xlink:href="classm5avatar_1_1_dog_mouth.html" target="_top" xlink:title=" ">
<polygon fill="white" stroke="#bfbfbf" points="593.5,-85 484.5,-85 484.5,-22 593.5,-22 593.5,-85"/>
<text text-anchor="middle" x="539" y="-73" font-family="Helvetica,sans-Serif" font-size="10.00">{m5avatar::DogMouth</text>
<text text-anchor="start" x="492.5" y="-62" font-family="Helvetica,sans-Serif" font-size="10.00">||+ DogMouth()</text>
<text text-anchor="start" x="492.5" y="-51" font-family="Helvetica,sans-Serif" font-size="10.00">+ DogMouth()</text>
<text text-anchor="start" x="492.5" y="-40" font-family="Helvetica,sans-Serif" font-size="10.00">+ draw()</text>
<text text-anchor="middle" x="539" y="-29" font-family="Helvetica,sans-Serif" font-size="10.00">}</text>
</a>
</g>
</g>
<!-- Node1&#45;&gt;Node6 -->
<g id="edge5" class="edge">
<title>Node1&#45;&gt;Node6</title>
<path fill="none" stroke="#63b8ff" d="M539,-131.14C539,-116.27 539,-99.31 539,-85.13"/>
<polygon fill="none" stroke="#63b8ff" points="535.5,-131.01 539,-141.01 542.5,-131.01 535.5,-131.01"/>
</g>
<!-- Node7 -->
<g id="node7" class="node">
<title>Node7</title>
<g id="a_node7"><a xlink:href="classm5avatar_1_1_effect.html" target="_top" xlink:title=" ">
<polygon fill="white" stroke="#bfbfbf" points="700.5,-96 611.5,-96 611.5,-11 700.5,-11 700.5,-96"/>
<text text-anchor="middle" x="656" y="-84" font-family="Helvetica,sans-Serif" font-size="10.00">{m5avatar::Effect</text>
<text text-anchor="start" x="619.5" y="-73" font-family="Helvetica,sans-Serif" font-size="10.00">||+ Effect()</text>
<text text-anchor="start" x="619.5" y="-62" font-family="Helvetica,sans-Serif" font-size="10.00">+ ~Effect()</text>
<text text-anchor="start" x="619.5" y="-51" font-family="Helvetica,sans-Serif" font-size="10.00">+ Effect()</text>
<text text-anchor="start" x="619.5" y="-40" font-family="Helvetica,sans-Serif" font-size="10.00">+ operator=()</text>
<text text-anchor="start" x="619.5" y="-29" font-family="Helvetica,sans-Serif" font-size="10.00">+ draw()</text>
<text text-anchor="middle" x="656" y="-18" font-family="Helvetica,sans-Serif" font-size="10.00">}</text>
</a>
</g>
</g>
<!-- Node1&#45;&gt;Node7 -->
<g id="edge6" class="edge">
<title>Node1&#45;&gt;Node7</title>
<path fill="none" stroke="#63b8ff" d="M573.97,-134.9C583.42,-125.89 593.63,-116.1 603,-107 606.53,-103.57 610.18,-100 613.84,-96.41"/>
<polygon fill="none" stroke="#63b8ff" points="571.82,-132.12 566.99,-141.55 576.64,-137.19 571.82,-132.12"/>
</g>
<!-- Node8 -->
<g id="node8" class="node">
<title>Node8</title>
<g id="a_node8"><a xlink:href="classm5avatar_1_1_eye.html" target="_top" xlink:title=" ">
<polygon fill="white" stroke="#bfbfbf" points="799,-107 719,-107 719,0 799,0 799,-107"/>
<text text-anchor="middle" x="759" y="-95" font-family="Helvetica,sans-Serif" font-size="10.00">{m5avatar::Eye</text>
<text text-anchor="start" x="727" y="-84" font-family="Helvetica,sans-Serif" font-size="10.00">||+ Eye()</text>
<text text-anchor="start" x="727" y="-73" font-family="Helvetica,sans-Serif" font-size="10.00">+ Eye()</text>
<text text-anchor="start" x="727" y="-62" font-family="Helvetica,sans-Serif" font-size="10.00">+ Eye()</text>
<text text-anchor="start" x="727" y="-51" font-family="Helvetica,sans-Serif" font-size="10.00">+ ~Eye()</text>
<text text-anchor="start" x="727" y="-40" font-family="Helvetica,sans-Serif" font-size="10.00">+ Eye()</text>
<text text-anchor="start" x="727" y="-29" font-family="Helvetica,sans-Serif" font-size="10.00">+ operator=()</text>
<text text-anchor="start" x="727" y="-18" font-family="Helvetica,sans-Serif" font-size="10.00">+ draw()</text>
<text text-anchor="middle" x="759" y="-7" font-family="Helvetica,sans-Serif" font-size="10.00">}</text>
</a>
</g>
</g>
<!-- Node1&#45;&gt;Node8 -->
<g id="edge7" class="edge">
<title>Node1&#45;&gt;Node8</title>
<path fill="none" stroke="#63b8ff" d="M602.39,-153.2C636.15,-143.46 677.32,-128.47 710,-107 712.92,-105.08 715.78,-102.96 718.57,-100.69"/>
<polygon fill="none" stroke="#63b8ff" points="601.86,-149.72 593.17,-155.78 603.75,-156.46 601.86,-149.72"/>
</g>
<!-- Node9 -->
<g id="node9" class="node">
<title>Node9</title>
<g id="a_node9"><a xlink:href="classm5avatar_1_1_eyeblow.html" target="_top" xlink:title=" ">
<polygon fill="white" stroke="#bfbfbf" points="918.5,-101.5 817.5,-101.5 817.5,-5.5 918.5,-5.5 918.5,-101.5"/>
<text text-anchor="middle" x="868" y="-89.5" font-family="Helvetica,sans-Serif" font-size="10.00">{m5avatar::Eyeblow</text>
<text text-anchor="start" x="825.5" y="-78.5" font-family="Helvetica,sans-Serif" font-size="10.00">||+ Eyeblow()</text>
<text text-anchor="start" x="825.5" y="-67.5" font-family="Helvetica,sans-Serif" font-size="10.00">+ Eyeblow()</text>
<text text-anchor="start" x="825.5" y="-56.5" font-family="Helvetica,sans-Serif" font-size="10.00">+ ~Eyeblow()</text>
<text text-anchor="start" x="825.5" y="-45.5" font-family="Helvetica,sans-Serif" font-size="10.00">+ Eyeblow()</text>
<text text-anchor="start" x="825.5" y="-34.5" font-family="Helvetica,sans-Serif" font-size="10.00">+ operator=()</text>
<text text-anchor="start" x="825.5" y="-23.5" font-family="Helvetica,sans-Serif" font-size="10.00">+ draw()</text>
<text text-anchor="middle" x="868" y="-12.5" font-family="Helvetica,sans-Serif" font-size="10.00">}</text>
</a>
</g>
</g>
<!-- Node1&#45;&gt;Node9 -->
<g id="edge8" class="edge">
<title>Node1&#45;&gt;Node9</title>
<path fill="none" stroke="#63b8ff" d="M603.19,-162.43C659.67,-155.48 742.82,-140.18 808,-107 811.08,-105.43 814.14,-103.67 817.14,-101.76"/>
<polygon fill="none" stroke="#63b8ff" points="602.94,-158.93 593.41,-163.57 603.75,-165.89 602.94,-158.93"/>
</g>
<!-- Node10 -->
<g id="node10" class="node">
<title>Node10</title>
<g id="a_node10"><a xlink:href="classm5avatar_1_1_mouth.html" target="_top" xlink:title=" ">
<polygon fill="white" stroke="#bfbfbf" points="1029,-101.5 937,-101.5 937,-5.5 1029,-5.5 1029,-101.5"/>
<text text-anchor="middle" x="983" y="-89.5" font-family="Helvetica,sans-Serif" font-size="10.00">{m5avatar::Mouth</text>
<text text-anchor="start" x="945" y="-78.5" font-family="Helvetica,sans-Serif" font-size="10.00">||+ Mouth()</text>
<text text-anchor="start" x="945" y="-67.5" font-family="Helvetica,sans-Serif" font-size="10.00">+ ~Mouth()</text>
<text text-anchor="start" x="945" y="-56.5" font-family="Helvetica,sans-Serif" font-size="10.00">+ Mouth()</text>
<text text-anchor="start" x="945" y="-45.5" font-family="Helvetica,sans-Serif" font-size="10.00">+ operator=()</text>
<text text-anchor="start" x="945" y="-34.5" font-family="Helvetica,sans-Serif" font-size="10.00">+ Mouth()</text>
<text text-anchor="start" x="945" y="-23.5" font-family="Helvetica,sans-Serif" font-size="10.00">+ draw()</text>
<text text-anchor="middle" x="983" y="-12.5" font-family="Helvetica,sans-Serif" font-size="10.00">}</text>
</a>
</g>
</g>
<!-- Node1&#45;&gt;Node10 -->
<g id="edge9" class="edge">
<title>Node1&#45;&gt;Node10</title>
<path fill="none" stroke="#63b8ff" d="M603.21,-162.61C698.5,-153.83 872.12,-134.6 928,-107 931.08,-105.48 934.1,-103.73 937.04,-101.8"/>
<polygon fill="none" stroke="#63b8ff" points="603.14,-159.1 593.5,-163.49 603.77,-166.07 603.14,-159.1"/>
</g>
</g>
</svg>
        <g id="navigator" transform="translate(0 0)" fill="#404254">
                <rect fill="#f2f5e9" fill-opacity="0.5" stroke="#606060" stroke-width=".5" x="0" y="0" width="60" height="60"/>
                <use id="zoomplus" xlink:href="#zoomPlus" x="17" y="9" onmousedown="handleZoom(evt,'in')"/>
                <use id="zoomminus" xlink:href="#zoomMin" x="42" y="9" onmousedown="handleZoom(evt,'out')"/>
                <use id="reset" xlink:href="#resetDef" x="30" y="36" onmousedown="handleReset()"/>
                <g id="arrowUp" xlink:href="#dirArrow" transform="translate(30 24)" onmousedown="handlePan(0,-1)">
                  <use xlink:href="#rim" fill="#404040">
                        <set attributeName="fill" to="#808080" begin="arrowUp.mouseover" end="arrowUp.mouseout"/>
                  </use>
                  <path fill="none" stroke="white" stroke-width="1.5" d="M0,-3.0v7 M-2.5,-0.5L0,-3.0L2.5,-0.5"/>
                </g>
                <g id="arrowRight" xlink:href="#dirArrow" transform="rotate(90) translate(36 -43)" onmousedown="handlePan(1,0)">
                  <use xlink:href="#rim" fill="#404040">
                        <set attributeName="fill" to="#808080" begin="arrowRight.mouseover" end="arrowRight.mouseout"/>
                  </use>
                  <path fill="none" stroke="white" stroke-width="1.5" d="M0,-3.0v7 M-2.5,-0.5L0,-3.0L2.5,-0.5"/>
                </g>
                <g id="arrowDown" xlink:href="#dirArrow" transform="rotate(180) translate(-30 -48)" onmousedown="handlePan(0,1)">
                  <use xlink:href="#rim" fill="#404040">
                        <set attributeName="fill" to="#808080" begin="arrowDown.mouseover" end="arrowDown.mouseout"/>
                  </use>
                  <path fill="none" stroke="white" stroke-width="1.5" d="M0,-3.0v7 M-2.5,-0.5L0,-3.0L2.5,-0.5"/>
                </g>
                <g id="arrowLeft" xlink:href="#dirArrow" transform="rotate(270) translate(-36 17)" onmousedown="handlePan(-1,0)">
                  <use xlink:href="#rim" fill="#404040">
                        <set attributeName="fill" to="#808080" begin="arrowLeft.mouseover" end="arrowLeft.mouseout"/>
                  </use>
                  <path fill="none" stroke="white" stroke-width="1.5" d="M0,-3.0v7 M-2.5,-0.5L0,-3.0L2.5,-0.5"/>
                </g>
        </g>
        <svg viewBox="0 0 15 15" width="100%" height="30px" preserveAspectRatio="xMaxYMin meet">
         <g id="arrow_out" transform="scale(0.3 0.3)">
          <a xlink:href="classm5avatar_1_1_drawable__inherit__graph_org.svg" target="_base">
           <rect id="button" ry="5" rx="5" y="6" x="6" height="38" width="38"
                fill="#f2f5e9" fill-opacity="0.5" stroke="#606060" stroke-width="1.0"/>
           <path id="arrow"
             d="M 11.500037,31.436501 C 11.940474,20.09759 22.043105,11.32322 32.158766,21.979434 L 37.068811,17.246167 C 37.068811,17.246167 37.088388,32 37.088388,32 L 22.160133,31.978069 C 22.160133,31.978069 26.997745,27.140456 26.997745,27.140456 C 18.528582,18.264221 13.291696,25.230495 11.500037,31.436501 z"
             style="fill:#404040;"/>
          </a>
         </g>
        </svg>
</svg>
