<?xml version="1.0" encoding="UTF-8" standalone="no"?>
<!DOCTYPE svg PUBLIC "-//W3C//DTD SVG 1.1//EN"
 "http://www.w3.org/Graphics/SVG/1.1/DTD/svg11.dtd">
<!-- Generated by graphviz version 7.0.5 (20221223.1930)
 -->
<!-- Title: m5avatar::Effect Pages: 1 -->
<svg width="113pt" height="181pt"
 viewBox="0.00 0.00 113.00 181.00" xmlns="http://www.w3.org/2000/svg" xmlns:xlink="http://www.w3.org/1999/xlink">
<g id="graph0" class="graph" transform="scale(1 1) rotate(0) translate(4 177)">
<title>m5avatar::Effect</title>
<!-- Node1 -->
<g id="node1" class="node">
<title>Node1</title>
<g id="a_node1"><a xlink:title=" ">
<polygon fill="#999999" stroke="#666666" points="97,-85 8,-85 8,0 97,0 97,-85"/>
<text text-anchor="middle" x="52.5" y="-73" font-family="Helvetica,sans-Serif" font-size="10.00">{m5avatar::Effect</text>
<text text-anchor="start" x="16" y="-62" font-family="Helvetica,sans-Serif" font-size="10.00">||+ Effect()</text>
<text text-anchor="start" x="16" y="-51" font-family="Helvetica,sans-Serif" font-size="10.00">+ ~Effect()</text>
<text text-anchor="start" x="16" y="-40" font-family="Helvetica,sans-Serif" font-size="10.00">+ Effect()</text>
<text text-anchor="start" x="16" y="-29" font-family="Helvetica,sans-Serif" font-size="10.00">+ operator=()</text>
<text text-anchor="start" x="16" y="-18" font-family="Helvetica,sans-Serif" font-size="10.00">+ draw()</text>
<text text-anchor="middle" x="52.5" y="-7" font-family="Helvetica,sans-Serif" font-size="10.00">}</text>
</a>
</g>
</g>
<!-- Node2 -->
<g id="node2" class="node">
<title>Node2</title>
<g id="a_node2"><a xlink:href="classm5avatar_1_1_drawable.html" target="_top" xlink:title=" ">
<polygon fill="white" stroke="#bfbfbf" points="105,-173 0,-173 0,-121 105,-121 105,-173"/>
<text text-anchor="middle" x="52.5" y="-161" font-family="Helvetica,sans-Serif" font-size="10.00">{m5avatar::Drawable</text>
<text text-anchor="start" x="8" y="-150" font-family="Helvetica,sans-Serif" font-size="10.00">||+ ~Drawable()</text>
<text text-anchor="start" x="8" y="-139" font-family="Helvetica,sans-Serif" font-size="10.00">+ draw()</text>
<text text-anchor="middle" x="52.5" y="-128" font-family="Helvetica,sans-Serif" font-size="10.00">}</text>
</a>
</g>
</g>
<!-- Node2&#45;&gt;Node1 -->
<g id="edge1" class="edge">
<title>Node2&#45;&gt;Node1</title>
<path fill="none" stroke="#63b8ff" d="M52.5,-109.32C52.5,-101.54 52.5,-93.26 52.5,-85.3"/>
<polygon fill="none" stroke="#63b8ff" points="49,-109.15 52.5,-119.15 56,-109.15 49,-109.15"/>
</g>
</g>
</svg>
