<?xml version="1.0" encoding="UTF-8" standalone="no"?>
<!DOCTYPE svg PUBLIC "-//W3C//DTD SVG 1.1//EN"
 "http://www.w3.org/Graphics/SVG/1.1/DTD/svg11.dtd">
<!-- Generated by graphviz version 7.0.5 (20221223.1930)
 -->
<!-- Title: m5avatar::Face Pages: 1 -->
<svg width="364pt" height="236pt"
 viewBox="0.00 0.00 363.50 236.00" xmlns="http://www.w3.org/2000/svg" xmlns:xlink="http://www.w3.org/1999/xlink">
<g id="graph0" class="graph" transform="scale(1 1) rotate(0) translate(4 232)">
<title>m5avatar::Face</title>
<!-- Node1 -->
<g id="node1" class="node">
<title>Node1</title>
<g id="a_node1"><a xlink:title=" ">
<polygon fill="#999999" stroke="#666666" points="221,-228 135,-228 135,-77 221,-77 221,-228"/>
<text text-anchor="middle" x="178" y="-216" font-family="Helvetica,sans-Serif" font-size="10.00">{m5avatar::Face</text>
<text text-anchor="start" x="143" y="-205" font-family="Helvetica,sans-Serif" font-size="10.00">||+ Face()</text>
<text text-anchor="start" x="143" y="-194" font-family="Helvetica,sans-Serif" font-size="10.00">+ Face()</text>
<text text-anchor="start" x="143" y="-183" font-family="Helvetica,sans-Serif" font-size="10.00">+ Face()</text>
<text text-anchor="start" x="143" y="-172" font-family="Helvetica,sans-Serif" font-size="10.00">+ Face()</text>
<text text-anchor="start" x="143" y="-161" font-family="Helvetica,sans-Serif" font-size="10.00">+ ~Face()</text>
<text text-anchor="start" x="143" y="-150" font-family="Helvetica,sans-Serif" font-size="10.00">+ Face()</text>
<text text-anchor="start" x="143" y="-139" font-family="Helvetica,sans-Serif" font-size="10.00">+ operator=()</text>
<text text-anchor="start" x="143" y="-128" font-family="Helvetica,sans-Serif" font-size="10.00">+ getLeftEye()</text>
<text text-anchor="start" x="143" y="-117" font-family="Helvetica,sans-Serif" font-size="10.00">+ getRightEye()</text>
<text text-anchor="start" x="143" y="-106" font-family="Helvetica,sans-Serif" font-size="10.00">+ getMouth()</text>
<text text-anchor="start" x="143" y="-95" font-family="Helvetica,sans-Serif" font-size="10.00">and 7 more...</text>
<text text-anchor="middle" x="178" y="-84" font-family="Helvetica,sans-Serif" font-size="10.00">}</text>
</a>
</g>
</g>
<!-- Node2 -->
<g id="node2" class="node">
<title>Node2</title>
<g id="a_node2"><a xlink:href="classm5avatar_1_1_b_m_p_face.html" target="_top" xlink:title=" ">
<polygon fill="white" stroke="#bfbfbf" points="108,-41 0,-41 0,0 108,0 108,-41"/>
<text text-anchor="middle" x="54" y="-29" font-family="Helvetica,sans-Serif" font-size="10.00">{m5avatar::BMPFace</text>
<text text-anchor="start" x="8" y="-18" font-family="Helvetica,sans-Serif" font-size="10.00">||+ BMPFace()</text>
<text text-anchor="middle" x="54" y="-7" font-family="Helvetica,sans-Serif" font-size="10.00">}</text>
</a>
</g>
</g>
<!-- Node1&#45;&gt;Node2 -->
<g id="edge1" class="edge">
<title>Node1&#45;&gt;Node2</title>
<path fill="none" stroke="#63b8ff" d="M126.85,-97.87C107.78,-77.88 87.3,-56.41 72.92,-41.34"/>
<polygon fill="none" stroke="#63b8ff" points="124.15,-100.12 133.59,-104.94 129.22,-95.29 124.15,-100.12"/>
</g>
<!-- Node3 -->
<g id="node3" class="node">
<title>Node3</title>
<g id="a_node3"><a xlink:href="classm5avatar_1_1_dog_face.html" target="_top" xlink:title=" ">
<polygon fill="white" stroke="#bfbfbf" points="230,-41 126,-41 126,0 230,0 230,-41"/>
<text text-anchor="middle" x="178" y="-29" font-family="Helvetica,sans-Serif" font-size="10.00">{m5avatar::DogFace</text>
<text text-anchor="start" x="134" y="-18" font-family="Helvetica,sans-Serif" font-size="10.00">||+ DogFace()</text>
<text text-anchor="middle" x="178" y="-7" font-family="Helvetica,sans-Serif" font-size="10.00">}</text>
</a>
</g>
</g>
<!-- Node1&#45;&gt;Node3 -->
<g id="edge2" class="edge">
<title>Node1&#45;&gt;Node3</title>
<path fill="none" stroke="#63b8ff" d="M178,-65.27C178,-56.5 178,-48.31 178,-41.44"/>
<polygon fill="none" stroke="#63b8ff" points="174.5,-65.12 178,-75.12 181.5,-65.12 174.5,-65.12"/>
</g>
<!-- Node4 -->
<g id="node4" class="node">
<title>Node4</title>
<g id="a_node4"><a xlink:href="classm5avatar_1_1_oled_face.html" target="_top" xlink:title=" ">
<polygon fill="white" stroke="#bfbfbf" points="355.5,-41 248.5,-41 248.5,0 355.5,0 355.5,-41"/>
<text text-anchor="middle" x="302" y="-29" font-family="Helvetica,sans-Serif" font-size="10.00">{m5avatar::OledFace</text>
<text text-anchor="start" x="256.5" y="-18" font-family="Helvetica,sans-Serif" font-size="10.00">||+ OledFace()</text>
<text text-anchor="middle" x="302" y="-7" font-family="Helvetica,sans-Serif" font-size="10.00">}</text>
</a>
</g>
</g>
<!-- Node1&#45;&gt;Node4 -->
<g id="edge3" class="edge">
<title>Node1&#45;&gt;Node4</title>
<path fill="none" stroke="#63b8ff" d="M229.15,-97.87C248.22,-77.88 268.7,-56.41 283.08,-41.34"/>
<polygon fill="none" stroke="#63b8ff" points="226.78,-95.29 222.41,-104.94 231.85,-100.12 226.78,-95.29"/>
</g>
</g>
</svg>
