<?xml version="1.0" encoding="UTF-8" standalone="no"?>
<!DOCTYPE svg PUBLIC "-//W3C//DTD SVG 1.1//EN"
 "http://www.w3.org/Graphics/SVG/1.1/DTD/svg11.dtd">
<!-- Generated by graphviz version 7.0.5 (20221223.1930)
 -->
<!-- Title: m5avatar::EllipseEye Pages: 1 -->
<svg width="220pt" height="457pt"
 viewBox="0.00 0.00 219.50 457.00" xmlns="http://www.w3.org/2000/svg" xmlns:xlink="http://www.w3.org/1999/xlink">
<g id="graph0" class="graph" transform="scale(1 1) rotate(0) translate(4 453)">
<title>m5avatar::EllipseEye</title>
<!-- Node1 -->
<g id="node1" class="node">
<title>Node1</title>
<g id="a_node1"><a xlink:title=" ">
<polygon fill="#999999" stroke="#666666" points="164,-63 55,-63 55,0 164,0 164,-63"/>
<text text-anchor="middle" x="109.5" y="-51" font-family="Helvetica,sans-Serif" font-size="10.00">{m5avatar::EllipseEye</text>
<text text-anchor="start" x="63" y="-40" font-family="Helvetica,sans-Serif" font-size="10.00">||+ draw()</text>
<text text-anchor="start" x="63" y="-29" font-family="Helvetica,sans-Serif" font-size="10.00">+ BaseEye()</text>
<text text-anchor="start" x="63" y="-18" font-family="Helvetica,sans-Serif" font-size="10.00">+ BaseEye()</text>
<text text-anchor="middle" x="109.5" y="-7" font-family="Helvetica,sans-Serif" font-size="10.00">}</text>
</a>
</g>
</g>
<!-- Node2 -->
<g id="node2" class="node">
<title>Node2</title>
<g id="a_node2"><a xlink:href="classm5avatar_1_1_base_eye.html" target="_top" xlink:title=" ">
<polygon fill="white" stroke="#bfbfbf" points="162.5,-295 56.5,-295 56.5,-100 162.5,-100 162.5,-295"/>
<text text-anchor="middle" x="109.5" y="-283" font-family="Helvetica,sans-Serif" font-size="10.00">{m5avatar::BaseEye</text>
<text text-anchor="start" x="64.5" y="-272" font-family="Helvetica,sans-Serif" font-size="10.00">|# height_</text>
<text text-anchor="start" x="64.5" y="-261" font-family="Helvetica,sans-Serif" font-size="10.00"># width_</text>
<text text-anchor="start" x="64.5" y="-250" font-family="Helvetica,sans-Serif" font-size="10.00"># is_left_</text>
<text text-anchor="start" x="64.5" y="-239" font-family="Helvetica,sans-Serif" font-size="10.00"># center_x_</text>
<text text-anchor="start" x="64.5" y="-228" font-family="Helvetica,sans-Serif" font-size="10.00"># center_y_</text>
<text text-anchor="start" x="64.5" y="-217" font-family="Helvetica,sans-Serif" font-size="10.00"># primary_color_</text>
<text text-anchor="start" x="64.5" y="-206" font-family="Helvetica,sans-Serif" font-size="10.00"># secondary_color_</text>
<text text-anchor="start" x="64.5" y="-195" font-family="Helvetica,sans-Serif" font-size="10.00"># background_color_</text>
<text text-anchor="start" x="64.5" y="-184" font-family="Helvetica,sans-Serif" font-size="10.00"># shifted_x_</text>
<text text-anchor="start" x="64.5" y="-173" font-family="Helvetica,sans-Serif" font-size="10.00"># shifted_y_</text>
<text text-anchor="start" x="64.5" y="-162" font-family="Helvetica,sans-Serif" font-size="10.00"># open_ratio_</text>
<text text-anchor="start" x="64.5" y="-151" font-family="Helvetica,sans-Serif" font-size="10.00"># expression_</text>
<text text-anchor="start" x="64.5" y="-140" font-family="Helvetica,sans-Serif" font-size="10.00">|+ BaseEye()</text>
<text text-anchor="start" x="64.5" y="-129" font-family="Helvetica,sans-Serif" font-size="10.00">+ BaseEye()</text>
<text text-anchor="start" x="64.5" y="-118" font-family="Helvetica,sans-Serif" font-size="10.00">+ update()</text>
<text text-anchor="middle" x="109.5" y="-107" font-family="Helvetica,sans-Serif" font-size="10.00">}</text>
</a>
</g>
</g>
<!-- Node2&#45;&gt;Node1 -->
<g id="edge1" class="edge">
<title>Node2&#45;&gt;Node1</title>
<path fill="none" stroke="#63b8ff" d="M109.5,-88.24C109.5,-79.37 109.5,-70.97 109.5,-63.49"/>
<polygon fill="none" stroke="#63b8ff" points="106,-88.16 109.5,-98.16 113,-88.16 106,-88.16"/>
</g>
<!-- Node3 -->
<g id="node3" class="node">
<title>Node3</title>
<g id="a_node3"><a xlink:href="classm5avatar_1_1_drawable.html" target="_top" xlink:title=" ">
<polygon fill="white" stroke="#bfbfbf" points="105,-421.5 0,-421.5 0,-369.5 105,-369.5 105,-421.5"/>
<text text-anchor="middle" x="52.5" y="-409.5" font-family="Helvetica,sans-Serif" font-size="10.00">{m5avatar::Drawable</text>
<text text-anchor="start" x="8" y="-398.5" font-family="Helvetica,sans-Serif" font-size="10.00">||+ ~Drawable()</text>
<text text-anchor="start" x="8" y="-387.5" font-family="Helvetica,sans-Serif" font-size="10.00">+ draw()</text>
<text text-anchor="middle" x="52.5" y="-376.5" font-family="Helvetica,sans-Serif" font-size="10.00">}</text>
</a>
</g>
</g>
<!-- Node3&#45;&gt;Node2 -->
<g id="edge2" class="edge">
<title>Node3&#45;&gt;Node2</title>
<path fill="none" stroke="#63b8ff" d="M62.98,-358.45C68.22,-340.45 74.83,-317.72 81.41,-295.09"/>
<polygon fill="none" stroke="#63b8ff" points="59.69,-357.24 60.26,-367.82 66.41,-359.2 59.69,-357.24"/>
</g>
<!-- Node4 -->
<g id="node4" class="node">
<title>Node4</title>
<g id="a_node4"><a xlink:href="classm5avatar_1_1_gaze.html" target="_top" xlink:title=" ">
<polygon fill="white" stroke="#bfbfbf" points="211.5,-449 123.5,-449 123.5,-342 211.5,-342 211.5,-449"/>
<text text-anchor="middle" x="167.5" y="-437" font-family="Helvetica,sans-Serif" font-size="10.00">{m5avatar::Gaze</text>
<text text-anchor="start" x="131.5" y="-426" font-family="Helvetica,sans-Serif" font-size="10.00">||+ Gaze()</text>
<text text-anchor="start" x="131.5" y="-415" font-family="Helvetica,sans-Serif" font-size="10.00">+ Gaze()</text>
<text text-anchor="start" x="131.5" y="-404" font-family="Helvetica,sans-Serif" font-size="10.00">+ ~Gaze()</text>
<text text-anchor="start" x="131.5" y="-393" font-family="Helvetica,sans-Serif" font-size="10.00">+ Gaze()</text>
<text text-anchor="start" x="131.5" y="-382" font-family="Helvetica,sans-Serif" font-size="10.00">+ operator=()</text>
<text text-anchor="start" x="131.5" y="-371" font-family="Helvetica,sans-Serif" font-size="10.00">+ getVertical()</text>
<text text-anchor="start" x="131.5" y="-360" font-family="Helvetica,sans-Serif" font-size="10.00">+ getHorizontal()</text>
<text text-anchor="middle" x="167.5" y="-349" font-family="Helvetica,sans-Serif" font-size="10.00">}</text>
</a>
</g>
</g>
<!-- Node4&#45;&gt;Node2 -->
<g id="edge3" class="edge">
<title>Node4&#45;&gt;Node2</title>
<path fill="none" stroke="#404040" d="M151.88,-341.72C148.72,-331.03 145.28,-319.42 141.78,-307.6"/>
<polygon fill="none" stroke="#404040" points="141.78,-307.6 136.25,-302.98 138.38,-296.09 143.92,-300.71 141.78,-307.6"/>
<text text-anchor="middle" x="161.5" y="-316" font-family="Helvetica,sans-Serif" font-size="10.00"> #gaze_</text>
</g>
</g>
</svg>
