<?xml version="1.0" encoding="UTF-8" standalone="no"?>
<!DOCTYPE svg PUBLIC "-//W3C//DTD SVG 1.1//EN"
 "http://www.w3.org/Graphics/SVG/1.1/DTD/svg11.dtd">
<!-- Generated by graphviz version 7.0.5 (20221223.1930)
 -->
<!-- Title: m5avatar::Eyeblow Pages: 1 -->
<svg width="113pt" height="192pt"
 viewBox="0.00 0.00 113.00 192.00" xmlns="http://www.w3.org/2000/svg" xmlns:xlink="http://www.w3.org/1999/xlink">
<g id="graph0" class="graph" transform="scale(1 1) rotate(0) translate(4 188)">
<title>m5avatar::Eyeblow</title>
<!-- Node1 -->
<g id="node1" class="node">
<title>Node1</title>
<g id="a_node1"><a xlink:title=" ">
<polygon fill="#999999" stroke="#666666" points="103,-96 2,-96 2,0 103,0 103,-96"/>
<text text-anchor="middle" x="52.5" y="-84" font-family="Helvetica,sans-Serif" font-size="10.00">{m5avatar::Eyeblow</text>
<text text-anchor="start" x="10" y="-73" font-family="Helvetica,sans-Serif" font-size="10.00">||+ Eyeblow()</text>
<text text-anchor="start" x="10" y="-62" font-family="Helvetica,sans-Serif" font-size="10.00">+ Eyeblow()</text>
<text text-anchor="start" x="10" y="-51" font-family="Helvetica,sans-Serif" font-size="10.00">+ ~Eyeblow()</text>
<text text-anchor="start" x="10" y="-40" font-family="Helvetica,sans-Serif" font-size="10.00">+ Eyeblow()</text>
<text text-anchor="start" x="10" y="-29" font-family="Helvetica,sans-Serif" font-size="10.00">+ operator=()</text>
<text text-anchor="start" x="10" y="-18" font-family="Helvetica,sans-Serif" font-size="10.00">+ draw()</text>
<text text-anchor="middle" x="52.5" y="-7" font-family="Helvetica,sans-Serif" font-size="10.00">}</text>
</a>
</g>
</g>
<!-- Node2 -->
<g id="node2" class="node">
<title>Node2</title>
<g id="a_node2"><a xlink:href="classm5avatar_1_1_drawable.html" target="_top" xlink:title=" ">
<polygon fill="white" stroke="#bfbfbf" points="105,-184 0,-184 0,-132 105,-132 105,-184"/>
<text text-anchor="middle" x="52.5" y="-172" font-family="Helvetica,sans-Serif" font-size="10.00">{m5avatar::Drawable</text>
<text text-anchor="start" x="8" y="-161" font-family="Helvetica,sans-Serif" font-size="10.00">||+ ~Drawable()</text>
<text text-anchor="start" x="8" y="-150" font-family="Helvetica,sans-Serif" font-size="10.00">+ draw()</text>
<text text-anchor="middle" x="52.5" y="-139" font-family="Helvetica,sans-Serif" font-size="10.00">}</text>
</a>
</g>
</g>
<!-- Node2&#45;&gt;Node1 -->
<g id="edge1" class="edge">
<title>Node2&#45;&gt;Node1</title>
<path fill="none" stroke="#63b8ff" d="M52.5,-120.39C52.5,-112.62 52.5,-104.3 52.5,-96.2"/>
<polygon fill="none" stroke="#63b8ff" points="49,-120.17 52.5,-130.17 56,-120.17 49,-120.17"/>
</g>
</g>
</svg>
