<?xml version="1.0" encoding="UTF-8" standalone="no"?>
<!DOCTYPE svg PUBLIC "-//W3C//DTD SVG 1.1//EN"
 "http://www.w3.org/Graphics/SVG/1.1/DTD/svg11.dtd">
<!-- Generated by graphviz version 7.0.5 (20221223.1930)
 -->
<!-- Title: m5avatar::EllipseEyebrow Pages: 1 -->
<svg width="138pt" height="357pt"
 viewBox="0.00 0.00 138.00 357.00" xmlns="http://www.w3.org/2000/svg" xmlns:xlink="http://www.w3.org/1999/xlink">
<g id="graph0" class="graph" transform="scale(1 1) rotate(0) translate(4 353)">
<title>m5avatar::EllipseEyebrow</title>
<!-- Node1 -->
<g id="node1" class="node">
<title>Node1</title>
<g id="a_node1"><a xlink:title=" ">
<polygon fill="#999999" stroke="#666666" points="130,-63 0,-63 0,0 130,0 130,-63"/>
<text text-anchor="middle" x="65" y="-51" font-family="Helvetica,sans-Serif" font-size="10.00">{m5avatar::EllipseEyebrow</text>
<text text-anchor="start" x="8" y="-40" font-family="Helvetica,sans-Serif" font-size="10.00">||+ draw()</text>
<text text-anchor="start" x="8" y="-29" font-family="Helvetica,sans-Serif" font-size="10.00">+ BaseEyebrow()</text>
<text text-anchor="start" x="8" y="-18" font-family="Helvetica,sans-Serif" font-size="10.00">+ BaseEyebrow()</text>
<text text-anchor="middle" x="65" y="-7" font-family="Helvetica,sans-Serif" font-size="10.00">}</text>
</a>
</g>
</g>
<!-- Node2 -->
<g id="node2" class="node">
<title>Node2</title>
<g id="a_node2"><a xlink:href="classm5avatar_1_1_base_eyebrow.html" target="_top" xlink:title=" ">
<polygon fill="white" stroke="#bfbfbf" points="127,-261 3,-261 3,-99 127,-99 127,-261"/>
<text text-anchor="middle" x="65" y="-249" font-family="Helvetica,sans-Serif" font-size="10.00">{m5avatar::BaseEyebrow</text>
<text text-anchor="start" x="11" y="-238" font-family="Helvetica,sans-Serif" font-size="10.00">|# height_</text>
<text text-anchor="start" x="11" y="-227" font-family="Helvetica,sans-Serif" font-size="10.00"># width_</text>
<text text-anchor="start" x="11" y="-216" font-family="Helvetica,sans-Serif" font-size="10.00"># is_left_</text>
<text text-anchor="start" x="11" y="-205" font-family="Helvetica,sans-Serif" font-size="10.00"># primary_color_</text>
<text text-anchor="start" x="11" y="-194" font-family="Helvetica,sans-Serif" font-size="10.00"># secondary_color_</text>
<text text-anchor="start" x="11" y="-183" font-family="Helvetica,sans-Serif" font-size="10.00"># background_color_</text>
<text text-anchor="start" x="11" y="-172" font-family="Helvetica,sans-Serif" font-size="10.00"># center_x_</text>
<text text-anchor="start" x="11" y="-161" font-family="Helvetica,sans-Serif" font-size="10.00"># center_y_</text>
<text text-anchor="start" x="11" y="-150" font-family="Helvetica,sans-Serif" font-size="10.00"># expression_</text>
<text text-anchor="start" x="11" y="-139" font-family="Helvetica,sans-Serif" font-size="10.00">|+ BaseEyebrow()</text>
<text text-anchor="start" x="11" y="-128" font-family="Helvetica,sans-Serif" font-size="10.00">+ BaseEyebrow()</text>
<text text-anchor="start" x="11" y="-117" font-family="Helvetica,sans-Serif" font-size="10.00">+ update()</text>
<text text-anchor="middle" x="65" y="-106" font-family="Helvetica,sans-Serif" font-size="10.00">}</text>
</a>
</g>
</g>
<!-- Node2&#45;&gt;Node1 -->
<g id="edge1" class="edge">
<title>Node2&#45;&gt;Node1</title>
<path fill="none" stroke="#63b8ff" d="M65,-87.41C65,-78.8 65,-70.56 65,-63.19"/>
<polygon fill="none" stroke="#63b8ff" points="61.5,-87.38 65,-97.38 68.5,-87.38 61.5,-87.38"/>
</g>
<!-- Node3 -->
<g id="node3" class="node">
<title>Node3</title>
<g id="a_node3"><a xlink:href="classm5avatar_1_1_drawable.html" target="_top" xlink:title=" ">
<polygon fill="white" stroke="#bfbfbf" points="117.5,-349 12.5,-349 12.5,-297 117.5,-297 117.5,-349"/>
<text text-anchor="middle" x="65" y="-337" font-family="Helvetica,sans-Serif" font-size="10.00">{m5avatar::Drawable</text>
<text text-anchor="start" x="20.5" y="-326" font-family="Helvetica,sans-Serif" font-size="10.00">||+ ~Drawable()</text>
<text text-anchor="start" x="20.5" y="-315" font-family="Helvetica,sans-Serif" font-size="10.00">+ draw()</text>
<text text-anchor="middle" x="65" y="-304" font-family="Helvetica,sans-Serif" font-size="10.00">}</text>
</a>
</g>
</g>
<!-- Node3&#45;&gt;Node2 -->
<g id="edge2" class="edge">
<title>Node3&#45;&gt;Node2</title>
<path fill="none" stroke="#63b8ff" d="M65,-285.55C65,-277.98 65,-269.73 65,-261.29"/>
<polygon fill="none" stroke="#63b8ff" points="61.5,-285.28 65,-295.28 68.5,-285.28 61.5,-285.28"/>
</g>
</g>
</svg>
