<?xml version="1.0" encoding="UTF-8" standalone="no"?>
<!DOCTYPE svg PUBLIC "-//W3C//DTD SVG 1.1//EN"
 "http://www.w3.org/Graphics/SVG/1.1/DTD/svg11.dtd">
<!-- Generated by graphviz version 7.0.5 (20221223.1930)
 -->
<!-- Title: m5avatar::BaseMouth Pages: 1 -->
<svg width="544pt" height="390pt"
 viewBox="0.00 0.00 544.00 390.00" xmlns="http://www.w3.org/2000/svg" xmlns:xlink="http://www.w3.org/1999/xlink">
<g id="graph0" class="graph" transform="scale(1 1) rotate(0) translate(4 386)">
<title>m5avatar::BaseMouth</title>
<!-- Node1 -->
<g id="node1" class="node">
<title>Node1</title>
<g id="a_node1"><a xlink:title=" ">
<polygon fill="#999999" stroke="#666666" points="323.5,-294 209.5,-294 209.5,-99 323.5,-99 323.5,-294"/>
<text text-anchor="middle" x="266.5" y="-282" font-family="Helvetica,sans-Serif" font-size="10.00">{m5avatar::BaseMouth</text>
<text text-anchor="start" x="217.5" y="-271" font-family="Helvetica,sans-Serif" font-size="10.00">|# min_width_</text>
<text text-anchor="start" x="217.5" y="-260" font-family="Helvetica,sans-Serif" font-size="10.00"># max_width_</text>
<text text-anchor="start" x="217.5" y="-249" font-family="Helvetica,sans-Serif" font-size="10.00"># min_height_</text>
<text text-anchor="start" x="217.5" y="-238" font-family="Helvetica,sans-Serif" font-size="10.00"># max_height_</text>
<text text-anchor="start" x="217.5" y="-227" font-family="Helvetica,sans-Serif" font-size="10.00"># center_x_</text>
<text text-anchor="start" x="217.5" y="-216" font-family="Helvetica,sans-Serif" font-size="10.00"># center_y_</text>
<text text-anchor="start" x="217.5" y="-205" font-family="Helvetica,sans-Serif" font-size="10.00"># primary_color_</text>
<text text-anchor="start" x="217.5" y="-194" font-family="Helvetica,sans-Serif" font-size="10.00"># secondary_color_</text>
<text text-anchor="start" x="217.5" y="-183" font-family="Helvetica,sans-Serif" font-size="10.00"># background_color_</text>
<text text-anchor="start" x="217.5" y="-172" font-family="Helvetica,sans-Serif" font-size="10.00"># open_ratio_</text>
<text text-anchor="start" x="217.5" y="-161" font-family="Helvetica,sans-Serif" font-size="10.00"># breath_</text>
<text text-anchor="start" x="217.5" y="-150" font-family="Helvetica,sans-Serif" font-size="10.00"># expression_</text>
<text text-anchor="start" x="217.5" y="-139" font-family="Helvetica,sans-Serif" font-size="10.00">|+ BaseMouth()</text>
<text text-anchor="start" x="217.5" y="-128" font-family="Helvetica,sans-Serif" font-size="10.00">+ BaseMouth()</text>
<text text-anchor="start" x="217.5" y="-117" font-family="Helvetica,sans-Serif" font-size="10.00">+ update()</text>
<text text-anchor="middle" x="266.5" y="-106" font-family="Helvetica,sans-Serif" font-size="10.00">}</text>
</a>
</g>
</g>
<!-- Node3 -->
<g id="node3" class="node">
<title>Node3</title>
<g id="a_node3"><a xlink:href="classm5avatar_1_1_doggy_mouth.html" target="_top" xlink:title=" ">
<polygon fill="white" stroke="#bfbfbf" points="119,-63 0,-63 0,0 119,0 119,-63"/>
<text text-anchor="middle" x="59.5" y="-51" font-family="Helvetica,sans-Serif" font-size="10.00">{m5avatar::DoggyMouth</text>
<text text-anchor="start" x="8" y="-40" font-family="Helvetica,sans-Serif" font-size="10.00">||+ draw()</text>
<text text-anchor="start" x="8" y="-29" font-family="Helvetica,sans-Serif" font-size="10.00">+ BaseMouth()</text>
<text text-anchor="start" x="8" y="-18" font-family="Helvetica,sans-Serif" font-size="10.00">+ BaseMouth()</text>
<text text-anchor="middle" x="59.5" y="-7" font-family="Helvetica,sans-Serif" font-size="10.00">}</text>
</a>
</g>
</g>
<!-- Node1&#45;&gt;Node3 -->
<g id="edge2" class="edge">
<title>Node1&#45;&gt;Node3</title>
<path fill="none" stroke="#63b8ff" d="M200.29,-143.36C166.79,-116.98 127.27,-85.86 98.64,-63.32"/>
<polygon fill="none" stroke="#63b8ff" points="197.9,-145.94 207.92,-149.38 202.23,-140.44 197.9,-145.94"/>
</g>
<!-- Node4 -->
<g id="node4" class="node">
<title>Node4</title>
<g id="a_node4"><a xlink:href="classm5avatar_1_1_omega_mouth.html" target="_top" xlink:title=" ">
<polygon fill="white" stroke="#bfbfbf" points="260,-63 137,-63 137,0 260,0 260,-63"/>
<text text-anchor="middle" x="198.5" y="-51" font-family="Helvetica,sans-Serif" font-size="10.00">{m5avatar::OmegaMouth</text>
<text text-anchor="start" x="145" y="-40" font-family="Helvetica,sans-Serif" font-size="10.00">||+ draw()</text>
<text text-anchor="start" x="145" y="-29" font-family="Helvetica,sans-Serif" font-size="10.00">+ BaseMouth()</text>
<text text-anchor="start" x="145" y="-18" font-family="Helvetica,sans-Serif" font-size="10.00">+ BaseMouth()</text>
<text text-anchor="middle" x="198.5" y="-7" font-family="Helvetica,sans-Serif" font-size="10.00">}</text>
</a>
</g>
</g>
<!-- Node1&#45;&gt;Node4 -->
<g id="edge3" class="edge">
<title>Node1&#45;&gt;Node4</title>
<path fill="none" stroke="#63b8ff" d="M221.73,-88.19C218.03,-79.31 214.51,-70.88 211.39,-63.4"/>
<polygon fill="none" stroke="#63b8ff" points="218.5,-89.52 225.58,-97.4 224.96,-86.82 218.5,-89.52"/>
</g>
<!-- Node5 -->
<g id="node5" class="node">
<title>Node5</title>
<g id="a_node5"><a xlink:href="classm5avatar_1_1_rect_mouth.html" target="_top" xlink:title=" ">
<polygon fill="white" stroke="#bfbfbf" points="390.5,-63 278.5,-63 278.5,0 390.5,0 390.5,-63"/>
<text text-anchor="middle" x="334.5" y="-51" font-family="Helvetica,sans-Serif" font-size="10.00">{m5avatar::RectMouth</text>
<text text-anchor="start" x="286.5" y="-40" font-family="Helvetica,sans-Serif" font-size="10.00">||+ draw()</text>
<text text-anchor="start" x="286.5" y="-29" font-family="Helvetica,sans-Serif" font-size="10.00">+ BaseMouth()</text>
<text text-anchor="start" x="286.5" y="-18" font-family="Helvetica,sans-Serif" font-size="10.00">+ BaseMouth()</text>
<text text-anchor="middle" x="334.5" y="-7" font-family="Helvetica,sans-Serif" font-size="10.00">}</text>
</a>
</g>
</g>
<!-- Node1&#45;&gt;Node5 -->
<g id="edge4" class="edge">
<title>Node1&#45;&gt;Node5</title>
<path fill="none" stroke="#63b8ff" d="M311.27,-88.19C314.97,-79.31 318.49,-70.88 321.61,-63.4"/>
<polygon fill="none" stroke="#63b8ff" points="308.04,-86.82 307.42,-97.4 314.5,-89.52 308.04,-86.82"/>
</g>
<!-- Node6 -->
<g id="node6" class="node">
<title>Node6</title>
<g id="a_node6"><a xlink:href="classm5avatar_1_1_u_shape_mouth.html" target="_top" xlink:title=" ">
<polygon fill="white" stroke="#bfbfbf" points="536,-63 409,-63 409,0 536,0 536,-63"/>
<text text-anchor="middle" x="472.5" y="-51" font-family="Helvetica,sans-Serif" font-size="10.00">{m5avatar::UShapeMouth</text>
<text text-anchor="start" x="417" y="-40" font-family="Helvetica,sans-Serif" font-size="10.00">||+ draw()</text>
<text text-anchor="start" x="417" y="-29" font-family="Helvetica,sans-Serif" font-size="10.00">+ BaseMouth()</text>
<text text-anchor="start" x="417" y="-18" font-family="Helvetica,sans-Serif" font-size="10.00">+ BaseMouth()</text>
<text text-anchor="middle" x="472.5" y="-7" font-family="Helvetica,sans-Serif" font-size="10.00">}</text>
</a>
</g>
</g>
<!-- Node1&#45;&gt;Node6 -->
<g id="edge5" class="edge">
<title>Node1&#45;&gt;Node6</title>
<path fill="none" stroke="#63b8ff" d="M332.63,-143.17C365.84,-116.9 404.93,-85.96 433.33,-63.49"/>
<polygon fill="none" stroke="#63b8ff" points="330.74,-140.21 325.07,-149.16 335.08,-145.7 330.74,-140.21"/>
</g>
<!-- Node2 -->
<g id="node2" class="node">
<title>Node2</title>
<g id="a_node2"><a xlink:href="classm5avatar_1_1_drawable.html" target="_top" xlink:title=" ">
<polygon fill="white" stroke="#bfbfbf" points="319,-382 214,-382 214,-330 319,-330 319,-382"/>
<text text-anchor="middle" x="266.5" y="-370" font-family="Helvetica,sans-Serif" font-size="10.00">{m5avatar::Drawable</text>
<text text-anchor="start" x="222" y="-359" font-family="Helvetica,sans-Serif" font-size="10.00">||+ ~Drawable()</text>
<text text-anchor="start" x="222" y="-348" font-family="Helvetica,sans-Serif" font-size="10.00">+ draw()</text>
<text text-anchor="middle" x="266.5" y="-337" font-family="Helvetica,sans-Serif" font-size="10.00">}</text>
</a>
</g>
</g>
<!-- Node2&#45;&gt;Node1 -->
<g id="edge1" class="edge">
<title>Node2&#45;&gt;Node1</title>
<path fill="none" stroke="#63b8ff" d="M266.5,-318.3C266.5,-310.87 266.5,-302.74 266.5,-294.31"/>
<polygon fill="none" stroke="#63b8ff" points="263,-318.18 266.5,-328.18 270,-318.18 263,-318.18"/>
</g>
</g>
</svg>
