<?xml version="1.0" encoding="UTF-8" standalone="no"?>
<!DOCTYPE svg PUBLIC "-//W3C//DTD SVG 1.1//EN"
 "http://www.w3.org/Graphics/SVG/1.1/DTD/svg11.dtd">
<!-- Generated by graphviz version 7.0.5 (20221223.1930)
 -->
<!-- Title: Graphical Class Hierarchy Pages: 1 -->
<svg width="261pt" height="323pt"
 viewBox="0.00 0.00 261.00 323.00" xmlns="http://www.w3.org/2000/svg" xmlns:xlink="http://www.w3.org/1999/xlink">
<g id="graph0" class="graph" transform="scale(1 1) rotate(0) translate(4 319)">
<title>Graphical Class Hierarchy</title>
<!-- Node0 -->
<g id="node1" class="node">
<title>Node0</title>
<g id="a_node1"><a xlink:href="classm5avatar_1_1_face.html" target="_top" xlink:title=" ">
<polygon fill="white" stroke="#666666" points="83,-167 0,-167 0,-148 83,-148 83,-167"/>
<text text-anchor="middle" x="41.5" y="-155" font-family="Helvetica,sans-Serif" font-size="10.00">m5avatar::Face</text>
</a>
</g>
</g>
<!-- Node1 -->
<g id="node2" class="node">
<title>Node1</title>
<g id="a_node2"><a xlink:href="classm5avatar_1_1_b_m_p_face.html" target="_top" xlink:title=" ">
<polygon fill="white" stroke="#666666" points="238.5,-315 133.5,-315 133.5,-296 238.5,-296 238.5,-315"/>
<text text-anchor="middle" x="186" y="-303" font-family="Helvetica,sans-Serif" font-size="10.00">m5avatar::BMPFace</text>
</a>
</g>
</g>
<!-- Node0&#45;&gt;Node1 -->
<g id="edge1" class="edge">
<title>Node0&#45;&gt;Node1</title>
<path fill="none" stroke="#63b8ff" d="M49.08,-178.22C59.32,-207.11 81.86,-259.12 119,-287.5 123.25,-290.75 128.04,-293.41 133.06,-295.59"/>
<polygon fill="#63b8ff" stroke="#63b8ff" points="52.42,-177.19 45.92,-168.83 45.79,-179.43 52.42,-177.19"/>
</g>
<!-- Node2 -->
<g id="node3" class="node">
<title>Node2</title>
<g id="a_node3"><a xlink:href="classm5avatar_1_1_dog_face.html" target="_top" xlink:title=" ">
<polygon fill="white" stroke="#666666" points="236.5,-278 135.5,-278 135.5,-259 236.5,-259 236.5,-278"/>
<text text-anchor="middle" x="186" y="-266" font-family="Helvetica,sans-Serif" font-size="10.00">m5avatar::DogFace</text>
</a>
</g>
</g>
<!-- Node0&#45;&gt;Node2 -->
<g id="edge2" class="edge">
<title>Node0&#45;&gt;Node2</title>
<path fill="none" stroke="#63b8ff" d="M53.6,-177.22C66.57,-198.46 90,-231.74 119,-250.5 123.99,-253.73 129.54,-256.38 135.25,-258.56"/>
<polygon fill="#63b8ff" stroke="#63b8ff" points="56.65,-175.5 48.56,-168.65 50.62,-179.04 56.65,-175.5"/>
</g>
<!-- Node3 -->
<g id="node4" class="node">
<title>Node3</title>
<g id="a_node4"><a xlink:href="classm5avatar_1_1_doggy_face.html" target="_top" xlink:title=" ">
<polygon fill="white" stroke="#666666" points="241,-241 131,-241 131,-222 241,-222 241,-241"/>
<text text-anchor="middle" x="186" y="-229" font-family="Helvetica,sans-Serif" font-size="10.00">m5avatar::DoggyFace</text>
</a>
</g>
</g>
<!-- Node0&#45;&gt;Node3 -->
<g id="edge3" class="edge">
<title>Node0&#45;&gt;Node3</title>
<path fill="none" stroke="#63b8ff" d="M61.75,-174.7C76.49,-187.07 97.84,-203.3 119,-213.5 125.53,-216.65 132.69,-219.31 139.82,-221.55"/>
<polygon fill="#63b8ff" stroke="#63b8ff" points="64.08,-172.09 54.22,-168.22 59.52,-177.4 64.08,-172.09"/>
</g>
<!-- Node4 -->
<g id="node5" class="node">
<title>Node4</title>
<g id="a_node5"><a xlink:href="classm5avatar_1_1_girly_face.html" target="_top" xlink:title=" ">
<polygon fill="white" stroke="#666666" points="237.5,-204 134.5,-204 134.5,-185 237.5,-185 237.5,-204"/>
<text text-anchor="middle" x="186" y="-192" font-family="Helvetica,sans-Serif" font-size="10.00">m5avatar::GirlyFace</text>
</a>
</g>
</g>
<!-- Node0&#45;&gt;Node4 -->
<g id="edge4" class="edge">
<title>Node0&#45;&gt;Node4</title>
<path fill="none" stroke="#63b8ff" d="M91.6,-170.25C109.63,-174.93 129.76,-180.16 146.71,-184.56"/>
<polygon fill="#63b8ff" stroke="#63b8ff" points="92.71,-166.92 82.15,-167.8 90.95,-173.7 92.71,-166.92"/>
</g>
<!-- Node5 -->
<g id="node6" class="node">
<title>Node5</title>
<g id="a_node6"><a xlink:href="classm5avatar_1_1_girly_face2.html" target="_top" xlink:title=" ">
<polygon fill="white" stroke="#666666" points="240,-167 132,-167 132,-148 240,-148 240,-167"/>
<text text-anchor="middle" x="186" y="-155" font-family="Helvetica,sans-Serif" font-size="10.00">m5avatar::GirlyFace2</text>
</a>
</g>
</g>
<!-- Node0&#45;&gt;Node5 -->
<g id="edge5" class="edge">
<title>Node0&#45;&gt;Node5</title>
<path fill="none" stroke="#63b8ff" d="M94.61,-157.5C106.68,-157.5 119.54,-157.5 131.66,-157.5"/>
<polygon fill="#63b8ff" stroke="#63b8ff" points="94.85,-154 84.85,-157.5 94.85,-161 94.85,-154"/>
</g>
<!-- Node6 -->
<g id="node7" class="node">
<title>Node6</title>
<g id="a_node7"><a xlink:href="classm5avatar_1_1_oled_face.html" target="_top" xlink:title=" ">
<polygon fill="white" stroke="#666666" points="238,-130 134,-130 134,-111 238,-111 238,-130"/>
<text text-anchor="middle" x="186" y="-118" font-family="Helvetica,sans-Serif" font-size="10.00">m5avatar::OledFace</text>
</a>
</g>
</g>
<!-- Node0&#45;&gt;Node6 -->
<g id="edge6" class="edge">
<title>Node0&#45;&gt;Node6</title>
<path fill="none" stroke="#63b8ff" d="M91.6,-144.75C109.63,-140.07 129.76,-134.84 146.71,-130.44"/>
<polygon fill="#63b8ff" stroke="#63b8ff" points="90.95,-141.3 82.15,-147.2 92.71,-148.08 90.95,-141.3"/>
</g>
<!-- Node7 -->
<g id="node8" class="node">
<title>Node7</title>
<g id="a_node8"><a xlink:href="classm5avatar_1_1_omega_face.html" target="_top" xlink:title="face template for &quot;OωO&quot; face">
<polygon fill="white" stroke="#666666" points="243.5,-93 128.5,-93 128.5,-74 243.5,-74 243.5,-93"/>
<text text-anchor="middle" x="186" y="-81" font-family="Helvetica,sans-Serif" font-size="10.00">m5avatar::OmegaFace</text>
</a>
</g>
</g>
<!-- Node0&#45;&gt;Node7 -->
<g id="edge7" class="edge">
<title>Node0&#45;&gt;Node7</title>
<path fill="none" stroke="#63b8ff" d="M62.35,-140.3C77.12,-128.25 98.24,-112.58 119,-102.5 126.29,-98.96 134.37,-95.96 142.3,-93.46"/>
<polygon fill="#63b8ff" stroke="#63b8ff" points="60.22,-137.52 54.79,-146.62 64.71,-142.89 60.22,-137.52"/>
</g>
<!-- Node8 -->
<g id="node9" class="node">
<title>Node8</title>
<g id="a_node9"><a xlink:href="classm5avatar_1_1_pink_demon_face.html" target="_top" xlink:title=" ">
<polygon fill="white" stroke="#666666" points="253,-56 119,-56 119,-37 253,-37 253,-56"/>
<text text-anchor="middle" x="186" y="-44" font-family="Helvetica,sans-Serif" font-size="10.00">m5avatar::PinkDemonFace</text>
</a>
</g>
</g>
<!-- Node0&#45;&gt;Node8 -->
<g id="edge8" class="edge">
<title>Node0&#45;&gt;Node8</title>
<path fill="none" stroke="#63b8ff" d="M53.9,-137.75C67.01,-116.79 90.42,-84.17 119,-65.5 124.59,-61.85 130.89,-58.88 137.33,-56.48"/>
<polygon fill="#63b8ff" stroke="#63b8ff" points="50.97,-135.84 48.8,-146.21 56.96,-139.46 50.97,-135.84"/>
</g>
<!-- Node9 -->
<g id="node10" class="node">
<title>Node9</title>
<g id="a_node10"><a xlink:href="classm5avatar_1_1_simple_face.html" target="_top" xlink:title="face template for &quot;o_o&quot;">
<polygon fill="white" stroke="#666666" points="242.5,-19 129.5,-19 129.5,0 242.5,0 242.5,-19"/>
<text text-anchor="middle" x="186" y="-7" font-family="Helvetica,sans-Serif" font-size="10.00">m5avatar::SimpleFace</text>
</a>
</g>
</g>
<!-- Node0&#45;&gt;Node9 -->
<g id="edge9" class="edge">
<title>Node0&#45;&gt;Node9</title>
<path fill="none" stroke="#63b8ff" d="M49.18,-137C59.54,-108.42 82.22,-56.92 119,-28.5 123.81,-24.78 129.33,-21.79 135.07,-19.39"/>
<polygon fill="#63b8ff" stroke="#63b8ff" points="45.93,-135.69 45.98,-146.28 52.55,-137.97 45.93,-135.69"/>
</g>
</g>
</svg>
