<?xml version="1.0" encoding="UTF-8" standalone="no"?>
<!DOCTYPE svg PUBLIC "-//W3C//DTD SVG 1.1//EN"
 "http://www.w3.org/Graphics/SVG/1.1/DTD/svg11.dtd">
<!-- Generated by graphviz version 7.0.5 (20221223.1930)
 -->
<!-- Title: Graphical Class Hierarchy Pages: 1 -->
<svg width="257pt" height="323pt"
 viewBox="0.00 0.00 257.00 323.00" xmlns="http://www.w3.org/2000/svg" xmlns:xlink="http://www.w3.org/1999/xlink">
<g id="graph0" class="graph" transform="scale(1 1) rotate(0) translate(4 319)">
<title>Graphical Class Hierarchy</title>
<!-- Node0 -->
<g id="node1" class="node">
<title>Node0</title>
<g id="a_node1"><a xlink:href="classm5avatar_1_1_drawable.html" target="_top" xlink:title=" ">
<polygon fill="white" stroke="#666666" points="102,-167 0,-167 0,-148 102,-148 102,-167"/>
<text text-anchor="middle" x="51" y="-155" font-family="Helvetica,sans-Serif" font-size="10.00">m5avatar::Drawable</text>
</a>
</g>
</g>
<!-- Node1 -->
<g id="node2" class="node">
<title>Node1</title>
<g id="a_node2"><a xlink:href="classm5avatar_1_1_b_m_p_eye.html" target="_top" xlink:title=" ">
<polygon fill="white" stroke="#666666" points="243,-315 144,-315 144,-296 243,-296 243,-315"/>
<text text-anchor="middle" x="193.5" y="-303" font-family="Helvetica,sans-Serif" font-size="10.00">m5avatar::BMPEye</text>
</a>
</g>
</g>
<!-- Node0&#45;&gt;Node1 -->
<g id="edge1" class="edge">
<title>Node0&#45;&gt;Node1</title>
<path fill="none" stroke="#63b8ff" d="M60.15,-177.58C72.72,-206.07 99.45,-258.03 138,-287.5 142.2,-290.71 146.99,-293.36 151.96,-295.55"/>
<polygon fill="#63b8ff" stroke="#63b8ff" points="63.49,-176.49 56.37,-168.66 57.05,-179.23 63.49,-176.49"/>
</g>
<!-- Node2 -->
<g id="node3" class="node">
<title>Node2</title>
<g id="a_node3"><a xlink:href="classm5avatar_1_1_balloon.html" target="_top" xlink:title=" ">
<polygon fill="white" stroke="#666666" points="240.5,-278 146.5,-278 146.5,-259 240.5,-259 240.5,-278"/>
<text text-anchor="middle" x="193.5" y="-266" font-family="Helvetica,sans-Serif" font-size="10.00">m5avatar::Balloon</text>
</a>
</g>
</g>
<!-- Node0&#45;&gt;Node2 -->
<g id="edge2" class="edge">
<title>Node0&#45;&gt;Node2</title>
<path fill="none" stroke="#63b8ff" d="M65.07,-176.63C80.3,-197.56 107.33,-230.76 138,-250.5 142.94,-253.68 148.5,-256.35 154.13,-258.58"/>
<polygon fill="#63b8ff" stroke="#63b8ff" points="68.08,-174.83 59.45,-168.69 62.37,-178.87 68.08,-174.83"/>
</g>
<!-- Node3 -->
<g id="node4" class="node">
<title>Node3</title>
<g id="a_node4"><a xlink:href="classm5avatar_1_1_battery_icon.html" target="_top" xlink:title=" ">
<polygon fill="white" stroke="#666666" points="249,-241 138,-241 138,-222 249,-222 249,-241"/>
<text text-anchor="middle" x="193.5" y="-229" font-family="Helvetica,sans-Serif" font-size="10.00">m5avatar::BatteryIcon</text>
</a>
</g>
</g>
<!-- Node0&#45;&gt;Node3 -->
<g id="edge3" class="edge">
<title>Node0&#45;&gt;Node3</title>
<path fill="none" stroke="#63b8ff" d="M73.78,-173.95C90.63,-186.1 114.91,-202.4 138,-213.5 144.29,-216.52 151.21,-219.24 157.95,-221.59"/>
<polygon fill="#63b8ff" stroke="#63b8ff" points="76.13,-171.34 66,-168.24 71.99,-176.98 76.13,-171.34"/>
</g>
<!-- Node4 -->
<g id="node5" class="node">
<title>Node4</title>
<g id="a_node5"><a xlink:href="classm5avatar_1_1_dog_eye.html" target="_top" xlink:title=" ">
<polygon fill="white" stroke="#666666" points="241,-204 146,-204 146,-185 241,-185 241,-204"/>
<text text-anchor="middle" x="193.5" y="-192" font-family="Helvetica,sans-Serif" font-size="10.00">m5avatar::DogEye</text>
</a>
</g>
</g>
<!-- Node0&#45;&gt;Node4 -->
<g id="edge4" class="edge">
<title>Node0&#45;&gt;Node4</title>
<path fill="none" stroke="#63b8ff" d="M100.66,-170.31C118.37,-174.98 138.12,-180.18 154.74,-184.56"/>
<polygon fill="#63b8ff" stroke="#63b8ff" points="101.68,-166.96 91.12,-167.8 99.89,-173.73 101.68,-166.96"/>
</g>
<!-- Node5 -->
<g id="node6" class="node">
<title>Node5</title>
<g id="a_node6"><a xlink:href="classm5avatar_1_1_dog_mouth.html" target="_top" xlink:title=" ">
<polygon fill="white" stroke="#666666" points="246.5,-167 140.5,-167 140.5,-148 246.5,-148 246.5,-167"/>
<text text-anchor="middle" x="193.5" y="-155" font-family="Helvetica,sans-Serif" font-size="10.00">m5avatar::DogMouth</text>
</a>
</g>
</g>
<!-- Node0&#45;&gt;Node5 -->
<g id="edge5" class="edge">
<title>Node0&#45;&gt;Node5</title>
<path fill="none" stroke="#63b8ff" d="M113.75,-157.5C122.56,-157.5 131.55,-157.5 140.15,-157.5"/>
<polygon fill="#63b8ff" stroke="#63b8ff" points="113.84,-154 103.84,-157.5 113.84,-161 113.84,-154"/>
</g>
<!-- Node6 -->
<g id="node7" class="node">
<title>Node6</title>
<g id="a_node7"><a xlink:href="classm5avatar_1_1_effect.html" target="_top" xlink:title=" ">
<polygon fill="white" stroke="#666666" points="236.5,-130 150.5,-130 150.5,-111 236.5,-111 236.5,-130"/>
<text text-anchor="middle" x="193.5" y="-118" font-family="Helvetica,sans-Serif" font-size="10.00">m5avatar::Effect</text>
</a>
</g>
</g>
<!-- Node0&#45;&gt;Node6 -->
<g id="edge6" class="edge">
<title>Node0&#45;&gt;Node6</title>
<path fill="none" stroke="#63b8ff" d="M100.66,-144.69C118.37,-140.02 138.12,-134.82 154.74,-130.44"/>
<polygon fill="#63b8ff" stroke="#63b8ff" points="99.89,-141.27 91.12,-147.2 101.68,-148.04 99.89,-141.27"/>
</g>
<!-- Node7 -->
<g id="node8" class="node">
<title>Node7</title>
<g id="a_node8"><a xlink:href="classm5avatar_1_1_eye.html" target="_top" xlink:title=" ">
<polygon fill="white" stroke="#666666" points="232,-93 155,-93 155,-74 232,-74 232,-93"/>
<text text-anchor="middle" x="193.5" y="-81" font-family="Helvetica,sans-Serif" font-size="10.00">m5avatar::Eye</text>
</a>
</g>
</g>
<!-- Node0&#45;&gt;Node7 -->
<g id="edge7" class="edge">
<title>Node0&#45;&gt;Node7</title>
<path fill="none" stroke="#63b8ff" d="M74.47,-141.06C91.34,-129.24 115.35,-113.51 138,-102.5 144.94,-99.13 152.64,-96.07 160,-93.43"/>
<polygon fill="#63b8ff" stroke="#63b8ff" points="72.77,-137.98 66.65,-146.63 76.83,-143.68 72.77,-137.98"/>
</g>
<!-- Node8 -->
<g id="node9" class="node">
<title>Node8</title>
<g id="a_node9"><a xlink:href="classm5avatar_1_1_eyeblow.html" target="_top" xlink:title=" ">
<polygon fill="white" stroke="#666666" points="242.5,-56 144.5,-56 144.5,-37 242.5,-37 242.5,-56"/>
<text text-anchor="middle" x="193.5" y="-44" font-family="Helvetica,sans-Serif" font-size="10.00">m5avatar::Eyeblow</text>
</a>
</g>
</g>
<!-- Node0&#45;&gt;Node8 -->
<g id="edge8" class="edge">
<title>Node0&#45;&gt;Node8</title>
<path fill="none" stroke="#63b8ff" d="M65.39,-138.39C80.75,-117.76 107.75,-85.2 138,-65.5 143.54,-61.89 149.85,-58.88 156.16,-56.4"/>
<polygon fill="#63b8ff" stroke="#63b8ff" points="62.56,-136.33 59.52,-146.49 68.23,-140.44 62.56,-136.33"/>
</g>
<!-- Node9 -->
<g id="node10" class="node">
<title>Node9</title>
<g id="a_node10"><a xlink:href="classm5avatar_1_1_mouth.html" target="_top" xlink:title=" ">
<polygon fill="white" stroke="#666666" points="238,-19 149,-19 149,0 238,0 238,-19"/>
<text text-anchor="middle" x="193.5" y="-7" font-family="Helvetica,sans-Serif" font-size="10.00">m5avatar::Mouth</text>
</a>
</g>
</g>
<!-- Node0&#45;&gt;Node9 -->
<g id="edge9" class="edge">
<title>Node0&#45;&gt;Node9</title>
<path fill="none" stroke="#63b8ff" d="M60.45,-137.24C73.22,-108.99 100.04,-57.91 138,-28.5 142.75,-24.82 148.27,-21.82 153.94,-19.38"/>
<polygon fill="#63b8ff" stroke="#63b8ff" points="57.37,-135.55 56.58,-146.12 63.78,-138.35 57.37,-135.55"/>
</g>
</g>
</svg>
