<?xml version="1.0" encoding="UTF-8" standalone="no"?>
<!DOCTYPE svg PUBLIC "-//W3C//DTD SVG 1.1//EN"
 "http://www.w3.org/Graphics/SVG/1.1/DTD/svg11.dtd">
<!-- Generated by graphviz version 7.0.5 (20221223.1930)
 -->
<!-- Title: Graphical Class Hierarchy Pages: 1 -->
<svg width="431pt" height="535pt"
 viewBox="0.00 0.00 431.00 535.00" xmlns="http://www.w3.org/2000/svg" xmlns:xlink="http://www.w3.org/1999/xlink">
<g id="graph0" class="graph" transform="scale(1 1) rotate(0) translate(4 531)">
<title>Graphical Class Hierarchy</title>
<!-- Node0 -->
<g id="node1" class="node">
<title>Node0</title>
<g id="a_node1"><a xlink:href="classm5avatar_1_1_drawable.html" target="_top" xlink:title=" ">
<polygon fill="white" stroke="#666666" points="102,-222 0,-222 0,-203 102,-203 102,-222"/>
<text text-anchor="middle" x="51" y="-210" font-family="Helvetica,sans-Serif" font-size="10.00">m5avatar::Drawable</text>
</a>
</g>
</g>
<!-- Node1 -->
<g id="node2" class="node">
<title>Node1</title>
<g id="a_node2"><a xlink:href="classm5avatar_1_1_b_m_p_eye.html" target="_top" xlink:title=" ">
<polygon fill="white" stroke="#666666" points="248,-490 149,-490 149,-471 248,-471 248,-490"/>
<text text-anchor="middle" x="198.5" y="-478" font-family="Helvetica,sans-Serif" font-size="10.00">m5avatar::BMPEye</text>
</a>
</g>
</g>
<!-- Node0&#45;&gt;Node1 -->
<g id="edge1" class="edge">
<title>Node0&#45;&gt;Node1</title>
<path fill="none" stroke="#63b8ff" d="M53.02,-233.58C56.49,-281.34 71.68,-398.63 138,-462.5 141.34,-465.72 145.24,-468.36 149.41,-470.54"/>
<polygon fill="#63b8ff" stroke="#63b8ff" points="56.53,-233.57 52.43,-223.8 49.54,-233.99 56.53,-233.57"/>
</g>
<!-- Node2 -->
<g id="node3" class="node">
<title>Node2</title>
<g id="a_node3"><a xlink:href="classm5avatar_1_1_balloon.html" target="_top" xlink:title=" ">
<polygon fill="white" stroke="#666666" points="245.5,-453 151.5,-453 151.5,-434 245.5,-434 245.5,-453"/>
<text text-anchor="middle" x="198.5" y="-441" font-family="Helvetica,sans-Serif" font-size="10.00">m5avatar::Balloon</text>
</a>
</g>
</g>
<!-- Node0&#45;&gt;Node2 -->
<g id="edge2" class="edge">
<title>Node0&#45;&gt;Node2</title>
<path fill="none" stroke="#63b8ff" d="M54.47,-233.59C60.59,-276.17 80.37,-372.84 138,-425.5 141.82,-428.99 146.31,-431.81 151.06,-434.08"/>
<polygon fill="#63b8ff" stroke="#63b8ff" points="57.95,-233.18 53.18,-223.72 51.01,-234.09 57.95,-233.18"/>
</g>
<!-- Node3 -->
<g id="node4" class="node">
<title>Node3</title>
<g id="a_node4"><a xlink:href="classm5avatar_1_1_base_eye.html" target="_top" xlink:title=" ">
<polygon fill="white" stroke="#666666" points="248.5,-416 148.5,-416 148.5,-397 248.5,-397 248.5,-416"/>
<text text-anchor="middle" x="198.5" y="-404" font-family="Helvetica,sans-Serif" font-size="10.00">m5avatar::BaseEye</text>
</a>
</g>
</g>
<!-- Node0&#45;&gt;Node3 -->
<g id="edge3" class="edge">
<title>Node0&#45;&gt;Node3</title>
<path fill="none" stroke="#63b8ff" d="M65.14,-231.81C81.69,-255.93 111.2,-298.32 138,-333.5 155.63,-356.65 177.51,-382.9 189.21,-396.75"/>
<polygon fill="#63b8ff" stroke="#63b8ff" points="68.08,-229.91 59.55,-223.63 62.3,-233.86 68.08,-229.91"/>
</g>
<!-- Node8 -->
<g id="node9" class="node">
<title>Node8</title>
<g id="a_node9"><a xlink:href="classm5avatar_1_1_base_eyebrow.html" target="_top" xlink:title=" ">
<polygon fill="white" stroke="#666666" points="259,-324 138,-324 138,-305 259,-305 259,-324"/>
<text text-anchor="middle" x="198.5" y="-312" font-family="Helvetica,sans-Serif" font-size="10.00">m5avatar::BaseEyebrow</text>
</a>
</g>
</g>
<!-- Node0&#45;&gt;Node8 -->
<g id="edge8" class="edge">
<title>Node0&#45;&gt;Node8</title>
<path fill="none" stroke="#63b8ff" d="M69,-230.02C85.53,-246.37 111.89,-270.71 138,-287.5 148.3,-294.13 160.5,-299.97 171.17,-304.51"/>
<polygon fill="#63b8ff" stroke="#63b8ff" points="71.9,-227.98 62.37,-223.35 66.94,-232.92 71.9,-227.98"/>
</g>
<!-- Node12 -->
<g id="node13" class="node">
<title>Node12</title>
<g id="a_node13"><a xlink:href="classm5avatar_1_1_base_mouth.html" target="_top" xlink:title=" ">
<polygon fill="white" stroke="#666666" points="254,-278 143,-278 143,-259 254,-259 254,-278"/>
<text text-anchor="middle" x="198.5" y="-266" font-family="Helvetica,sans-Serif" font-size="10.00">m5avatar::BaseMouth</text>
</a>
</g>
</g>
<!-- Node0&#45;&gt;Node12 -->
<g id="edge12" class="edge">
<title>Node0&#45;&gt;Node12</title>
<path fill="none" stroke="#63b8ff" d="M82.58,-227.1C98.84,-234.59 119.29,-243.57 138,-250.5 145.69,-253.35 154.06,-256.09 162.03,-258.54"/>
<polygon fill="#63b8ff" stroke="#63b8ff" points="84.48,-224.13 73.93,-223.08 81.52,-230.47 84.48,-224.13"/>
</g>
<!-- Node17 -->
<g id="node18" class="node">
<title>Node17</title>
<g id="a_node18"><a xlink:href="classm5avatar_1_1_battery_icon.html" target="_top" xlink:title=" ">
<polygon fill="white" stroke="#666666" points="254,-241 143,-241 143,-222 254,-222 254,-241"/>
<text text-anchor="middle" x="198.5" y="-229" font-family="Helvetica,sans-Serif" font-size="10.00">m5avatar::BatteryIcon</text>
</a>
</g>
</g>
<!-- Node0&#45;&gt;Node17 -->
<g id="edge17" class="edge">
<title>Node0&#45;&gt;Node17</title>
<path fill="none" stroke="#63b8ff" d="M113.63,-220.55C123.27,-221.81 133.17,-223.1 142.64,-224.34"/>
<polygon fill="#63b8ff" stroke="#63b8ff" points="114.35,-217.11 103.98,-219.29 113.44,-224.05 114.35,-217.11"/>
</g>
<!-- Node18 -->
<g id="node19" class="node">
<title>Node18</title>
<g id="a_node19"><a xlink:href="classm5avatar_1_1_dog_eye.html" target="_top" xlink:title=" ">
<polygon fill="white" stroke="#666666" points="246,-204 151,-204 151,-185 246,-185 246,-204"/>
<text text-anchor="middle" x="198.5" y="-192" font-family="Helvetica,sans-Serif" font-size="10.00">m5avatar::DogEye</text>
</a>
</g>
</g>
<!-- Node0&#45;&gt;Node18 -->
<g id="edge18" class="edge">
<title>Node0&#45;&gt;Node18</title>
<path fill="none" stroke="#63b8ff" d="M113.65,-204.87C126,-203.35 138.78,-201.76 150.53,-200.31"/>
<polygon fill="#63b8ff" stroke="#63b8ff" points="113.48,-201.37 103.98,-206.07 114.34,-208.31 113.48,-201.37"/>
</g>
<!-- Node19 -->
<g id="node20" class="node">
<title>Node19</title>
<g id="a_node20"><a xlink:href="classm5avatar_1_1_dog_mouth.html" target="_top" xlink:title=" ">
<polygon fill="white" stroke="#666666" points="251.5,-167 145.5,-167 145.5,-148 251.5,-148 251.5,-167"/>
<text text-anchor="middle" x="198.5" y="-155" font-family="Helvetica,sans-Serif" font-size="10.00">m5avatar::DogMouth</text>
</a>
</g>
</g>
<!-- Node0&#45;&gt;Node19 -->
<g id="edge19" class="edge">
<title>Node0&#45;&gt;Node19</title>
<path fill="none" stroke="#63b8ff" d="M84.48,-198.11C100.47,-191.24 120.11,-183.09 138,-176.5 146.55,-173.35 155.89,-170.23 164.59,-167.44"/>
<polygon fill="#63b8ff" stroke="#63b8ff" points="83.23,-194.84 75.45,-202.04 86.02,-201.26 83.23,-194.84"/>
</g>
<!-- Node20 -->
<g id="node21" class="node">
<title>Node20</title>
<g id="a_node21"><a xlink:href="classm5avatar_1_1_effect.html" target="_top" xlink:title=" ">
<polygon fill="white" stroke="#666666" points="241.5,-130 155.5,-130 155.5,-111 241.5,-111 241.5,-130"/>
<text text-anchor="middle" x="198.5" y="-118" font-family="Helvetica,sans-Serif" font-size="10.00">m5avatar::Effect</text>
</a>
</g>
</g>
<!-- Node0&#45;&gt;Node20 -->
<g id="edge20" class="edge">
<title>Node0&#45;&gt;Node20</title>
<path fill="none" stroke="#63b8ff" d="M68.31,-194.71C84.51,-178.01 110.8,-153.44 138,-138.5 143.77,-135.33 150.17,-132.65 156.57,-130.41"/>
<polygon fill="#63b8ff" stroke="#63b8ff" points="66.18,-191.86 61.85,-201.53 71.26,-196.68 66.18,-191.86"/>
</g>
<!-- Node21 -->
<g id="node22" class="node">
<title>Node21</title>
<g id="a_node22"><a xlink:href="classm5avatar_1_1_eye.html" target="_top" xlink:title=" ">
<polygon fill="white" stroke="#666666" points="237,-93 160,-93 160,-74 237,-74 237,-93"/>
<text text-anchor="middle" x="198.5" y="-81" font-family="Helvetica,sans-Serif" font-size="10.00">m5avatar::Eye</text>
</a>
</g>
</g>
<!-- Node0&#45;&gt;Node21 -->
<g id="edge21" class="edge">
<title>Node0&#45;&gt;Node21</title>
<path fill="none" stroke="#63b8ff" d="M62.41,-192.42C76.33,-167.48 103.34,-125.35 138,-101.5 144.49,-97.03 152.12,-93.65 159.7,-91.1"/>
<polygon fill="#63b8ff" stroke="#63b8ff" points="59.33,-190.74 57.67,-201.2 65.5,-194.06 59.33,-190.74"/>
</g>
<!-- Node22 -->
<g id="node23" class="node">
<title>Node22</title>
<g id="a_node23"><a xlink:href="classm5avatar_1_1_eyeblow.html" target="_top" xlink:title=" ">
<polygon fill="white" stroke="#666666" points="247.5,-56 149.5,-56 149.5,-37 247.5,-37 247.5,-56"/>
<text text-anchor="middle" x="198.5" y="-44" font-family="Helvetica,sans-Serif" font-size="10.00">m5avatar::Eyeblow</text>
</a>
</g>
</g>
<!-- Node0&#45;&gt;Node22 -->
<g id="edge22" class="edge">
<title>Node0&#45;&gt;Node22</title>
<path fill="none" stroke="#63b8ff" d="M58.48,-191.78C69.57,-159.73 95.21,-98.33 138,-64.5 142.06,-61.29 146.69,-58.65 151.54,-56.48"/>
<polygon fill="#63b8ff" stroke="#63b8ff" points="55.23,-190.47 55.42,-201.07 61.88,-192.67 55.23,-190.47"/>
</g>
<!-- Node23 -->
<g id="node24" class="node">
<title>Node23</title>
<g id="a_node24"><a xlink:href="classm5avatar_1_1_mouth.html" target="_top" xlink:title=" ">
<polygon fill="white" stroke="#666666" points="243,-19 154,-19 154,0 243,0 243,-19"/>
<text text-anchor="middle" x="198.5" y="-7" font-family="Helvetica,sans-Serif" font-size="10.00">m5avatar::Mouth</text>
</a>
</g>
</g>
<!-- Node0&#45;&gt;Node23 -->
<g id="edge23" class="edge">
<title>Node0&#45;&gt;Node23</title>
<path fill="none" stroke="#63b8ff" d="M55.89,-191.57C64.09,-153.31 86.81,-71.92 138,-27.5 142.56,-23.54 147.98,-20.45 153.65,-18.04"/>
<polygon fill="#63b8ff" stroke="#63b8ff" points="52.47,-190.8 53.94,-201.3 59.34,-192.18 52.47,-190.8"/>
</g>
<!-- Node4 -->
<g id="node5" class="node">
<title>Node4</title>
<g id="a_node5"><a xlink:href="classm5avatar_1_1_doggy_eye.html" target="_top" xlink:title=" ">
<polygon fill="white" stroke="#666666" points="411,-527 307,-527 307,-508 411,-508 411,-527"/>
<text text-anchor="middle" x="359" y="-515" font-family="Helvetica,sans-Serif" font-size="10.00">m5avatar::DoggyEye</text>
</a>
</g>
</g>
<!-- Node3&#45;&gt;Node4 -->
<g id="edge4" class="edge">
<title>Node3&#45;&gt;Node4</title>
<path fill="none" stroke="#63b8ff" d="M254.37,-421.94C255.98,-423.05 257.53,-424.23 259,-425.5 286.65,-449.44 266.98,-475.99 295,-499.5 298.83,-502.72 303.21,-505.36 307.83,-507.53"/>
<polygon fill="#63b8ff" stroke="#63b8ff" points="256.27,-419 245.83,-417.17 252.86,-425.11 256.27,-419"/>
</g>
<!-- Node5 -->
<g id="node6" class="node">
<title>Node5</title>
<g id="a_node6"><a xlink:href="classm5avatar_1_1_ellipse_eye.html" target="_top" xlink:title=" ">
<polygon fill="white" stroke="#666666" points="412,-490 306,-490 306,-471 412,-471 412,-490"/>
<text text-anchor="middle" x="359" y="-478" font-family="Helvetica,sans-Serif" font-size="10.00">m5avatar::EllipseEye</text>
</a>
</g>
</g>
<!-- Node3&#45;&gt;Node5 -->
<g id="edge5" class="edge">
<title>Node3&#45;&gt;Node5</title>
<path fill="none" stroke="#63b8ff" d="M250.41,-420.84C253.39,-422.27 256.28,-423.82 259,-425.5 278.51,-437.57 275.31,-450.73 295,-462.5 300.37,-465.71 306.34,-468.37 312.41,-470.57"/>
<polygon fill="#63b8ff" stroke="#63b8ff" points="252.03,-417.73 241.45,-417.07 249.31,-424.18 252.03,-417.73"/>
</g>
<!-- Node6 -->
<g id="node7" class="node">
<title>Node6</title>
<g id="a_node7"><a xlink:href="classm5avatar_1_1_girly_eye.html" target="_top" xlink:title=" ">
<polygon fill="white" stroke="#666666" points="407.5,-453 310.5,-453 310.5,-434 407.5,-434 407.5,-453"/>
<text text-anchor="middle" x="359" y="-441" font-family="Helvetica,sans-Serif" font-size="10.00">m5avatar::GirlyEye</text>
</a>
</g>
</g>
<!-- Node3&#45;&gt;Node6 -->
<g id="edge6" class="edge">
<title>Node3&#45;&gt;Node6</title>
<path fill="none" stroke="#63b8ff" d="M252.98,-418.98C273.32,-423.73 296.2,-429.07 315.41,-433.56"/>
<polygon fill="#63b8ff" stroke="#63b8ff" points="253.98,-415.62 243.45,-416.76 252.39,-422.44 253.98,-415.62"/>
</g>
<!-- Node7 -->
<g id="node8" class="node">
<title>Node7</title>
<g id="a_node8"><a xlink:href="classm5avatar_1_1_pink_demon_eye.html" target="_top" xlink:title=" ">
<polygon fill="white" stroke="#666666" points="423,-416 295,-416 295,-397 423,-397 423,-416"/>
<text text-anchor="middle" x="359" y="-404" font-family="Helvetica,sans-Serif" font-size="10.00">m5avatar::PinkDemonEye</text>
</a>
</g>
</g>
<!-- Node3&#45;&gt;Node7 -->
<g id="edge7" class="edge">
<title>Node3&#45;&gt;Node7</title>
<path fill="none" stroke="#63b8ff" d="M259.94,-406.5C271.33,-406.5 283.26,-406.5 294.73,-406.5"/>
<polygon fill="#63b8ff" stroke="#63b8ff" points="260.3,-403 250.3,-406.5 260.3,-410 260.3,-403"/>
</g>
<!-- Node9 -->
<g id="node10" class="node">
<title>Node9</title>
<g id="a_node10"><a xlink:href="classm5avatar_1_1_bow_eyebrow.html" target="_top" xlink:title=" ">
<polygon fill="white" stroke="#666666" points="418,-379 300,-379 300,-360 418,-360 418,-379"/>
<text text-anchor="middle" x="359" y="-367" font-family="Helvetica,sans-Serif" font-size="10.00">m5avatar::BowEyebrow</text>
</a>
</g>
</g>
<!-- Node8&#45;&gt;Node9 -->
<g id="edge9" class="edge">
<title>Node8&#45;&gt;Node9</title>
<path fill="none" stroke="#63b8ff" d="M233.82,-328.67C251.88,-335.91 274.48,-344.61 295,-351.5 303.41,-354.32 312.55,-357.1 321.18,-359.59"/>
<polygon fill="#63b8ff" stroke="#63b8ff" points="235.21,-325.46 224.62,-324.95 232.58,-331.95 235.21,-325.46"/>
</g>
<!-- Node10 -->
<g id="node11" class="node">
<title>Node10</title>
<g id="a_node11"><a xlink:href="classm5avatar_1_1_ellipse_eyebrow.html" target="_top" xlink:title=" ">
<polygon fill="white" stroke="#666666" points="422.5,-342 295.5,-342 295.5,-323 422.5,-323 422.5,-342"/>
<text text-anchor="middle" x="359" y="-330" font-family="Helvetica,sans-Serif" font-size="10.00">m5avatar::EllipseEyebrow</text>
</a>
</g>
</g>
<!-- Node8&#45;&gt;Node10 -->
<g id="edge10" class="edge">
<title>Node8&#45;&gt;Node10</title>
<path fill="none" stroke="#63b8ff" d="M270.77,-322.59C278.88,-323.51 287.1,-324.45 295.09,-325.36"/>
<polygon fill="#63b8ff" stroke="#63b8ff" points="271.26,-319.13 260.93,-321.48 270.47,-326.08 271.26,-319.13"/>
</g>
<!-- Node11 -->
<g id="node12" class="node">
<title>Node11</title>
<g id="a_node12"><a xlink:href="classm5avatar_1_1_rect_eyebrow.html" target="_top" xlink:title=" ">
<polygon fill="white" stroke="#666666" points="418.5,-305 299.5,-305 299.5,-286 418.5,-286 418.5,-305"/>
<text text-anchor="middle" x="359" y="-293" font-family="Helvetica,sans-Serif" font-size="10.00">m5avatar::RectEyebrow</text>
</a>
</g>
</g>
<!-- Node8&#45;&gt;Node11 -->
<g id="edge11" class="edge">
<title>Node8&#45;&gt;Node11</title>
<path fill="none" stroke="#63b8ff" d="M270.82,-305.95C280.26,-304.82 289.85,-303.67 299.04,-302.57"/>
<polygon fill="#63b8ff" stroke="#63b8ff" points="270.44,-302.47 260.92,-307.14 271.27,-309.42 270.44,-302.47"/>
</g>
<!-- Node13 -->
<g id="node14" class="node">
<title>Node13</title>
<g id="a_node14"><a xlink:href="classm5avatar_1_1_doggy_mouth.html" target="_top" xlink:title=" ">
<polygon fill="white" stroke="#666666" points="417,-268 301,-268 301,-249 417,-249 417,-268"/>
<text text-anchor="middle" x="359" y="-256" font-family="Helvetica,sans-Serif" font-size="10.00">m5avatar::DoggyMouth</text>
</a>
</g>
</g>
<!-- Node12&#45;&gt;Node13 -->
<g id="edge13" class="edge">
<title>Node12&#45;&gt;Node13</title>
<path fill="none" stroke="#63b8ff" d="M265.89,-264.31C277.45,-263.58 289.39,-262.83 300.68,-262.12"/>
<polygon fill="#63b8ff" stroke="#63b8ff" points="265.76,-260.81 256,-264.94 266.2,-267.8 265.76,-260.81"/>
</g>
<!-- Node14 -->
<g id="node15" class="node">
<title>Node14</title>
<g id="a_node15"><a xlink:href="classm5avatar_1_1_omega_mouth.html" target="_top" xlink:title=" ">
<polygon fill="white" stroke="#666666" points="419,-231 299,-231 299,-212 419,-212 419,-231"/>
<text text-anchor="middle" x="359" y="-219" font-family="Helvetica,sans-Serif" font-size="10.00">m5avatar::OmegaMouth</text>
</a>
</g>
</g>
<!-- Node12&#45;&gt;Node14 -->
<g id="edge14" class="edge">
<title>Node12&#45;&gt;Node14</title>
<path fill="none" stroke="#63b8ff" d="M244,-255.3C269.51,-247.74 301.02,-238.4 324.43,-231.45"/>
<polygon fill="#63b8ff" stroke="#63b8ff" points="243.16,-251.9 234.56,-258.1 245.15,-258.61 243.16,-251.9"/>
</g>
<!-- Node15 -->
<g id="node16" class="node">
<title>Node15</title>
<g id="a_node16"><a xlink:href="classm5avatar_1_1_rect_mouth.html" target="_top" xlink:title=" ">
<polygon fill="white" stroke="#666666" points="413.5,-194 304.5,-194 304.5,-175 413.5,-175 413.5,-194"/>
<text text-anchor="middle" x="359" y="-182" font-family="Helvetica,sans-Serif" font-size="10.00">m5avatar::RectMouth</text>
</a>
</g>
</g>
<!-- Node12&#45;&gt;Node15 -->
<g id="edge15" class="edge">
<title>Node12&#45;&gt;Node15</title>
<path fill="none" stroke="#63b8ff" d="M254.05,-253.6C255.76,-252.63 257.41,-251.6 259,-250.5 280.64,-235.52 273.36,-218.47 295,-203.5 300.36,-199.8 306.45,-196.8 312.69,-194.38"/>
<polygon fill="#63b8ff" stroke="#63b8ff" points="252.7,-250.37 245.21,-257.86 255.74,-256.68 252.7,-250.37"/>
</g>
<!-- Node16 -->
<g id="node17" class="node">
<title>Node16</title>
<g id="a_node17"><a xlink:href="classm5avatar_1_1_u_shape_mouth.html" target="_top" xlink:title=" ">
<polygon fill="white" stroke="#666666" points="421,-157 297,-157 297,-138 421,-138 421,-157"/>
<text text-anchor="middle" x="359" y="-145" font-family="Helvetica,sans-Serif" font-size="10.00">m5avatar::UShapeMouth</text>
</a>
</g>
</g>
<!-- Node12&#45;&gt;Node16 -->
<g id="edge16" class="edge">
<title>Node12&#45;&gt;Node16</title>
<path fill="none" stroke="#63b8ff" d="M256.55,-252.54C257.39,-251.89 258.21,-251.21 259,-250.5 289.27,-223.42 264.72,-193.57 295,-166.5 299.17,-162.77 304.06,-159.77 309.23,-157.36"/>
<polygon fill="#63b8ff" stroke="#63b8ff" points="254.72,-249.55 248.04,-257.78 258.39,-255.52 254.72,-249.55"/>
</g>
</g>
</svg>
