<?xml version="1.0" encoding="UTF-8" standalone="no"?>
<!DOCTYPE svg PUBLIC "-//W3C//DTD SVG 1.1//EN"
 "http://www.w3.org/Graphics/SVG/1.1/DTD/svg11.dtd">
<!-- Generated by graphviz version 7.0.5 (20221223.1930)
 -->
<!-- Title: Graphical Class Hierarchy Pages: 1 -->
<svg width="232pt" height="101pt"
 viewBox="0.00 0.00 232.00 101.00" xmlns="http://www.w3.org/2000/svg" xmlns:xlink="http://www.w3.org/1999/xlink">
<g id="graph0" class="graph" transform="scale(1 1) rotate(0) translate(4 97)">
<title>Graphical Class Hierarchy</title>
<!-- Node0 -->
<g id="node1" class="node">
<title>Node0</title>
<g id="a_node1"><a xlink:href="classm5avatar_1_1_face.html" target="_top" xlink:title=" ">
<polygon fill="white" stroke="#666666" points="83,-56 0,-56 0,-37 83,-37 83,-56"/>
<text text-anchor="middle" x="41.5" y="-44" font-family="Helvetica,sans-Serif" font-size="10.00">m5avatar::Face</text>
</a>
</g>
</g>
<!-- Node1 -->
<g id="node2" class="node">
<title>Node1</title>
<g id="a_node2"><a xlink:href="classm5avatar_1_1_b_m_p_face.html" target="_top" xlink:title=" ">
<polygon fill="white" stroke="#666666" points="224,-93 119,-93 119,-74 224,-74 224,-93"/>
<text text-anchor="middle" x="171.5" y="-81" font-family="Helvetica,sans-Serif" font-size="10.00">m5avatar::BMPFace</text>
</a>
</g>
</g>
<!-- Node0&#45;&gt;Node1 -->
<g id="edge1" class="edge">
<title>Node0&#45;&gt;Node1</title>
<path fill="none" stroke="#63b8ff" d="M87.52,-59.51C103.48,-64.13 121.17,-69.24 136.1,-73.56"/>
<polygon fill="#63b8ff" stroke="#63b8ff" points="88.83,-56.25 78.26,-56.84 86.89,-62.97 88.83,-56.25"/>
</g>
<!-- Node2 -->
<g id="node3" class="node">
<title>Node2</title>
<g id="a_node3"><a xlink:href="classm5avatar_1_1_dog_face.html" target="_top" xlink:title=" ">
<polygon fill="white" stroke="#666666" points="222,-56 121,-56 121,-37 222,-37 222,-56"/>
<text text-anchor="middle" x="171.5" y="-44" font-family="Helvetica,sans-Serif" font-size="10.00">m5avatar::DogFace</text>
</a>
</g>
</g>
<!-- Node0&#45;&gt;Node2 -->
<g id="edge2" class="edge">
<title>Node0&#45;&gt;Node2</title>
<path fill="none" stroke="#63b8ff" d="M94.76,-46.5C103.31,-46.5 112.14,-46.5 120.62,-46.5"/>
<polygon fill="#63b8ff" stroke="#63b8ff" points="94.87,-43 84.87,-46.5 94.87,-50 94.87,-43"/>
</g>
<!-- Node3 -->
<g id="node4" class="node">
<title>Node3</title>
<g id="a_node4"><a xlink:href="classm5avatar_1_1_oled_face.html" target="_top" xlink:title=" ">
<polygon fill="white" stroke="#666666" points="223.5,-19 119.5,-19 119.5,0 223.5,0 223.5,-19"/>
<text text-anchor="middle" x="171.5" y="-7" font-family="Helvetica,sans-Serif" font-size="10.00">m5avatar::OledFace</text>
</a>
</g>
</g>
<!-- Node0&#45;&gt;Node3 -->
<g id="edge3" class="edge">
<title>Node0&#45;&gt;Node3</title>
<path fill="none" stroke="#63b8ff" d="M87.52,-33.49C103.48,-28.87 121.17,-23.76 136.1,-19.44"/>
<polygon fill="#63b8ff" stroke="#63b8ff" points="86.89,-30.03 78.26,-36.16 88.83,-36.75 86.89,-30.03"/>
</g>
</g>
</svg>
